<svg width="40" height="40" viewBox="0 0 40 40" fill="none" xmlns="http://www.w3.org/2000/svg">
<path d="M9.64281 2.39307C9.64281 1.84908 9.33941 1.39985 8.93529 1.10518C8.53074 0.810198 7.9964 0.643066 7.42852 0.643066C6.86064 0.643066 6.3263 0.810198 5.92175 1.10518C5.51763 1.39985 5.21423 1.84908 5.21423 2.39307V35.7264C5.21423 36.2704 5.51763 36.7196 5.92175 37.0143C6.3263 37.3093 6.86064 37.4764 7.42852 37.4764C7.9964 37.4764 8.53074 37.3093 8.93529 37.0143C9.33941 36.7196 9.64281 36.2704 9.64281 35.7264V22.1431V5.4764V2.39307Z" fill="#FFCC00" stroke="black" stroke-linecap="round"/>
<path d="M10.1877 2.64975L9.78577 2.73014V3.14004V19.8067V20.4166L10.3838 20.297L13.2516 19.7234C15.9074 19.1923 18.6603 19.445 21.175 20.4509C24.0951 21.619 27.3091 21.8371 30.3603 21.0743L30.7178 20.9849C31.9821 20.6688 32.8691 19.5328 32.8691 18.2296V5.95119C32.8691 4.32497 31.3408 3.13172 29.7632 3.52614C27.1464 4.18032 24.3901 3.99326 21.8857 2.99152L21.7 3.45576L21.8857 2.99152L21.5463 2.85576C18.8516 1.77785 15.9015 1.507 13.0555 2.0762L10.1877 2.64975Z" fill="#FF0000" stroke="black" stroke-linecap="round"/>
</svg>
