<svg width="42" height="42" viewBox="0 0 42 42" fill="none" xmlns="http://www.w3.org/2000/svg">
<g filter="url(#filter0_d_172_1663)">
<circle cx="19" cy="19" r="12" fill="#2A85FF" stroke="white" stroke-width="2"/>
<path fill-rule="evenodd" clip-rule="evenodd" d="M14.3059 11.5566C14.6096 11.5566 14.8559 11.8029 14.8559 12.1066V12.9024L16.0098 12.6716C17.3248 12.4086 18.6879 12.5338 19.9331 13.0318L20.0824 13.0916C21.1199 13.5066 22.2618 13.5841 23.3459 13.313C24.2483 13.0874 25.1225 13.77 25.1225 14.7002V20.1027C25.1225 20.8276 24.6292 21.4594 23.926 21.6352L23.7687 21.6745C22.3589 22.027 20.8738 21.9262 19.5245 21.3865C18.4775 20.9677 17.3313 20.8624 16.2255 21.0836L14.8559 21.3575V26.7733C14.8559 27.0771 14.6096 27.3233 14.3059 27.3233C14.0021 27.3233 13.7559 27.0771 13.7559 26.7733V12.1066C13.7559 11.8029 14.0021 11.5566 14.3059 11.5566ZM14.8559 20.2358L16.0098 20.005C17.3248 19.742 18.6879 19.8671 19.9331 20.3652C21.0677 20.819 22.3164 20.9037 23.5019 20.6074L23.6592 20.568C23.8727 20.5147 24.0225 20.3228 24.0225 20.1027V14.7002C24.0225 14.4856 23.8209 14.3282 23.6127 14.3802C22.3043 14.7073 20.9261 14.6138 19.6739 14.1129L19.5245 14.0531C18.4775 13.6343 17.3313 13.5291 16.2255 13.7503L14.8559 14.0242V20.2358Z" fill="white"/>
</g>
<defs>
<filter id="filter0_d_172_1663" x="0" y="0" width="42" height="42" filterUnits="userSpaceOnUse" color-interpolation-filters="sRGB">
<feFlood flood-opacity="0" result="BackgroundImageFix"/>
<feColorMatrix in="SourceAlpha" type="matrix" values="0 0 0 0 0 0 0 0 0 0 0 0 0 0 0 0 0 0 127 0" result="hardAlpha"/>
<feOffset dx="2" dy="2"/>
<feGaussianBlur stdDeviation="4"/>
<feComposite in2="hardAlpha" operator="out"/>
<feColorMatrix type="matrix" values="0 0 0 0 0 0 0 0 0 0 0 0 0 0 0 0 0 0 1 0"/>
<feBlend mode="normal" in2="BackgroundImageFix" result="effect1_dropShadow_172_1663"/>
<feBlend mode="normal" in="SourceGraphic" in2="effect1_dropShadow_172_1663" result="shape"/>
</filter>
</defs>
</svg>
