<svg width="28" height="28" viewBox="0 0 28 28" fill="none" xmlns="http://www.w3.org/2000/svg">
<path d="M2.4375 14C2.4375 7.61421 7.61421 2.4375 14 2.4375C20.3858 2.4375 25.5625 7.61421 25.5625 14C25.5625 17.1932 24.2693 20.0825 22.1759 22.1759C21.8098 22.542 21.8098 23.1356 22.1759 23.5017C22.542 23.8679 23.1356 23.8679 23.5017 23.5017C25.9324 21.0711 27.4375 17.7104 27.4375 14C27.4375 6.57867 21.4213 0.5625 14 0.5625C6.57867 0.5625 0.5625 6.57867 0.5625 14C0.5625 17.7104 2.06757 21.0711 4.49825 23.5017C4.86437 23.8679 5.45796 23.8679 5.82408 23.5017C6.19019 23.1356 6.19019 22.542 5.82408 22.1759C3.73065 20.0825 2.4375 17.1932 2.4375 14Z" fill="white"/>
<path d="M7.4375 14C7.4375 10.3756 10.3756 7.4375 14 7.4375C17.6244 7.4375 20.5625 10.3756 20.5625 14C20.5625 15.8124 19.829 17.4518 18.6404 18.6404C18.2743 19.0065 18.2743 19.6001 18.6404 19.9662C19.0065 20.3323 19.6001 20.3323 19.9662 19.9662C21.4921 18.4404 22.4375 16.3297 22.4375 14C22.4375 9.3401 18.6599 5.5625 14 5.5625C9.3401 5.5625 5.5625 9.3401 5.5625 14C5.5625 16.3297 6.50793 18.4404 8.03379 19.9662C8.3999 20.3323 8.99349 20.3323 9.35961 19.9662C9.72573 19.6001 9.72573 19.0065 9.35961 18.6404C8.17101 17.4518 7.4375 15.8124 7.4375 14Z" fill="white"/>
<path fill-rule="evenodd" clip-rule="evenodd" d="M10.5625 14C10.5625 12.1015 12.1015 10.5625 14 10.5625C15.8985 10.5625 17.4375 12.1015 17.4375 14C17.4375 15.8985 15.8985 17.4375 14 17.4375C12.1015 17.4375 10.5625 15.8985 10.5625 14ZM14 12.4375C13.1371 12.4375 12.4375 13.1371 12.4375 14C12.4375 14.8629 13.1371 15.5625 14 15.5625C14.8629 15.5625 15.5625 14.8629 15.5625 14C15.5625 13.1371 14.8629 12.4375 14 12.4375Z" fill="white"/>
<path fill-rule="evenodd" clip-rule="evenodd" d="M15.7413 18.6793C15.2692 18.3446 14.7622 18.0956 14.1467 18.066C14.0489 18.0613 13.9511 18.0613 13.8533 18.066C13.2378 18.0956 12.7308 18.3446 12.2587 18.6793C11.8187 18.9912 11.3327 19.4349 10.7682 19.9503L10.6698 20.04C9.41372 21.1867 8.39795 22.1139 7.75077 22.8861C7.12949 23.6275 6.55856 24.558 6.92705 25.5947C6.97623 25.733 7.03703 25.8668 7.10859 25.9949C7.62198 26.9138 8.66544 27.1885 9.6682 27.3104C10.7146 27.4375 12.1441 27.4375 13.9295 27.4375H14.0704C15.8558 27.4375 17.2854 27.4375 18.3318 27.3104C19.3346 27.1885 20.378 26.9138 20.8914 25.9949C20.963 25.8668 21.0238 25.733 21.0729 25.5947C21.4414 24.558 20.8705 23.6275 20.2492 22.8861C19.602 22.1139 18.5863 21.1867 17.3302 20.0401L17.2318 19.9503C16.6673 19.4349 16.1813 18.9912 15.7413 18.6793ZM13.343 20.2089C13.6556 19.9874 13.8186 19.9449 13.9434 19.9389C13.9811 19.937 14.0189 19.937 14.0566 19.9389C14.1814 19.9449 14.3444 19.9874 14.657 20.2089C14.991 20.4457 15.3916 20.8091 16.0087 21.3725C17.3356 22.5837 18.2558 23.4266 18.8121 24.0905C19.0874 24.4189 19.2223 24.6453 19.28 24.7969C19.3256 24.9167 19.3112 24.9539 19.3069 24.965L19.3062 24.9667C19.2926 25.005 19.2754 25.043 19.2546 25.0804C19.2303 25.1238 19.0823 25.3303 18.1056 25.4491C17.1862 25.5608 15.8719 25.5625 14 25.5625C12.1281 25.5625 10.8138 25.5608 9.89442 25.4491C8.91766 25.3303 8.76972 25.1238 8.74543 25.0804C8.72455 25.043 8.70737 25.005 8.69376 24.9667L8.69315 24.965C8.68881 24.9539 8.67438 24.9167 8.71999 24.7969C8.77774 24.6453 8.91258 24.4189 9.18786 24.0905C9.74423 23.4266 10.6644 22.5837 11.9913 21.3725C12.6084 20.8091 13.009 20.4457 13.343 20.2089Z" fill="white"/>
</svg>
