<svg width="30" height="30" viewBox="0 0 30 30" fill="none" xmlns="http://www.w3.org/2000/svg">
<path d="M23.9268 2.5977C26.1371 4.85239 27.5 7.94088 27.5 11.3477C27.5 14.795 26.1045 17.9163 23.8477 20.1777M6.25 20.2745C3.9358 18.0058 2.5 14.8444 2.5 11.3477C2.5 7.89141 3.90277 4.76275 6.17004 2.5" stroke="white" stroke-width="1.5" stroke-linecap="round" stroke-linejoin="round"/>
<path d="M20.3561 6.40262C21.6823 7.67112 22.5 9.40872 22.5 11.3254C22.5 13.2649 21.6627 15.0209 20.3086 16.2932M9.75 16.3477C8.36148 15.0713 7.5 13.2927 7.5 11.3254C7.5 9.38088 8.34166 7.62069 9.70202 6.34766" stroke="white" stroke-width="1.5" stroke-linecap="round" stroke-linejoin="round"/>
<circle cx="15" cy="11.3477" r="2.5" stroke="white" stroke-width="1.5"/>
<path d="M15.625 13.75L20 27.5L13.125 19.375M14.375 13.75L10 27.5L16.875 19.375" stroke="white" stroke-width="1.5" stroke-linecap="round" stroke-linejoin="round"/>
</svg>
