<svg width="26" height="28" viewBox="0 0 26 28" fill="none" xmlns="http://www.w3.org/2000/svg">
<path fill-rule="evenodd" clip-rule="evenodd" d="M13 9.3125C10.4112 9.3125 8.3125 11.4112 8.3125 14C8.3125 16.5888 10.4112 18.6875 13 18.6875C15.5888 18.6875 17.6875 16.5888 17.6875 14C17.6875 11.4112 15.5888 9.3125 13 9.3125ZM10.1875 14C10.1875 12.4467 11.4467 11.1875 13 11.1875C14.5533 11.1875 15.8125 12.4467 15.8125 14C15.8125 15.5533 14.5533 16.8125 13 16.8125C11.4467 16.8125 10.1875 15.5533 10.1875 14Z" fill="white"/>
<path fill-rule="evenodd" clip-rule="evenodd" d="M12.9684 0.5625C12.4128 0.562491 11.949 0.562484 11.5683 0.588463C11.1719 0.615507 10.7975 0.673811 10.4345 0.824165C9.59223 1.17305 8.92304 1.84224 8.57415 2.68453C8.39252 3.12302 8.34333 3.58515 8.32455 4.08746C8.30945 4.49124 8.10567 4.82814 7.80494 5.00176C7.50421 5.17539 7.11056 5.18341 6.75333 4.9946C6.30892 4.75971 5.88411 4.57124 5.41354 4.50929C4.50966 4.39029 3.59553 4.63523 2.87224 5.19023C2.56054 5.42941 2.32284 5.7245 2.10123 6.05425C1.88835 6.37102 1.65646 6.77268 1.37868 7.25383L1.34711 7.30851C1.06931 7.78965 0.837409 8.1913 0.669526 8.53404C0.49476 8.89083 0.358049 9.24423 0.306766 9.63376C0.187767 10.5376 0.432709 11.4518 0.987705 12.1751C1.2766 12.5516 1.65216 12.8252 2.07771 13.0926C2.41994 13.3076 2.60985 13.6526 2.60983 14C2.60981 14.3473 2.4199 14.6922 2.07772 14.9072C1.65211 15.1747 1.27651 15.4483 0.987583 15.8249C0.432587 16.5481 0.187645 17.4623 0.306643 18.3662C0.357926 18.7557 0.494637 19.1091 0.669404 19.4659C0.837285 19.8086 1.06918 20.2103 1.34697 20.6914L1.37855 20.7461C1.65633 21.2272 1.88823 21.6289 2.10111 21.9457C2.32272 22.2754 2.56041 22.5705 2.87212 22.8097C3.5954 23.3647 4.50954 23.6096 5.41342 23.4906C5.88396 23.4287 6.30874 23.2402 6.75313 23.0054C7.11041 22.8165 7.50411 22.8246 7.80488 22.9982C8.10565 23.1718 8.30945 23.5088 8.32455 23.9126C8.34334 24.4149 8.39253 24.877 8.57415 25.3155C8.92304 26.1578 9.59223 26.827 10.4345 27.1758C10.7975 27.3262 11.1719 27.3845 11.5683 27.4115C11.949 27.4375 12.4128 27.4375 12.9684 27.4375H13.0316C13.5871 27.4375 14.0509 27.4375 14.4317 27.4115C14.8281 27.3845 15.2025 27.3262 15.5655 27.1758C16.4077 26.827 17.0769 26.1578 17.4258 25.3155C17.6075 24.877 17.6566 24.4148 17.6754 23.9125C17.6905 23.5087 17.8943 23.1718 18.195 22.9982C18.4958 22.8245 18.8895 22.8165 19.2468 23.0053C19.6911 23.2402 20.1159 23.4286 20.5864 23.4905C21.4903 23.6095 22.4045 23.3646 23.1277 22.8096C23.4394 22.5704 23.6771 22.2753 23.8987 21.9456C24.1116 21.6288 24.3435 21.2272 24.6213 20.7461L24.6528 20.6914C24.9306 20.2103 25.1626 19.8085 25.3305 19.4658C25.5052 19.109 25.6419 18.7556 25.6932 18.3661C25.8122 17.4622 25.5673 16.5481 25.0123 15.8248C24.7234 15.4482 24.3478 15.1746 23.9222 14.9072C23.58 14.6922 23.3901 14.3472 23.3902 13.9999C23.3902 13.6527 23.5801 13.3078 23.9222 13.0928C24.3478 12.8254 24.7235 12.5517 25.0124 12.1751C25.5674 11.4519 25.8123 10.5377 25.6933 9.63385C25.6421 9.24432 25.5053 8.89092 25.3306 8.53413C25.1627 8.19141 24.9308 7.78979 24.6531 7.30869L24.6215 7.25397C24.3437 6.77282 24.1118 6.37111 23.8989 6.05434C23.6773 5.72459 23.4396 5.4295 23.1279 5.19032C22.4046 4.63532 21.4904 4.39038 20.5866 4.50938C20.116 4.57133 19.6912 4.75977 19.2468 4.99465C18.8896 5.18348 18.4959 5.17545 18.1951 5.0018C17.8943 4.82816 17.6905 4.49122 17.6754 4.08738C17.6566 3.5851 17.6074 3.123 17.4258 2.68453C17.0769 1.84224 16.4077 1.17305 15.5655 0.824165C15.2025 0.673811 14.8281 0.615507 14.4317 0.588463C14.0509 0.562484 13.5871 0.562491 13.0316 0.5625H12.9684ZM11.152 2.55644C11.2485 2.51649 11.395 2.47964 11.6959 2.45911C12.0052 2.43801 12.4047 2.4375 13 2.4375C13.5952 2.4375 13.9947 2.43801 14.3041 2.45911C14.605 2.47964 14.7515 2.51649 14.8479 2.55644C15.2308 2.71502 15.535 3.0192 15.6936 3.40206C15.7436 3.52282 15.785 3.71109 15.8017 4.15746C15.8388 5.14794 16.35 6.10161 17.2576 6.6256C18.1652 7.1496 19.2467 7.1155 20.123 6.65235C20.5179 6.44362 20.7017 6.3854 20.8313 6.36834C21.2422 6.31425 21.6577 6.42558 21.9864 6.67786C22.0692 6.7414 22.1744 6.84987 22.3427 7.1002C22.5156 7.35753 22.7158 7.70325 23.0134 8.21875C23.311 8.73426 23.5103 9.08048 23.6467 9.35892C23.7794 9.62978 23.8208 9.77509 23.8344 9.87858C23.8885 10.2894 23.7771 10.705 23.5249 11.0337C23.4453 11.1374 23.3029 11.2675 22.9247 11.5052C22.0855 12.0324 21.5152 12.9519 21.5152 13.9998C21.5151 15.0479 22.0854 15.9675 22.9247 16.4948C23.3029 16.7324 23.4452 16.8625 23.5247 16.9662C23.777 17.295 23.8883 17.7105 23.8343 18.1213C23.8206 18.2248 23.7793 18.3701 23.6466 18.641C23.5102 18.9194 23.3109 19.2657 23.0133 19.7812C22.7157 20.2967 22.5155 20.6424 22.3425 20.8997C22.1743 21.15 22.0691 21.2585 21.9863 21.3221C21.6575 21.5743 21.242 21.6857 20.8312 21.6316C20.7016 21.6145 20.5178 21.5563 20.1229 21.3476C19.2466 20.8844 18.165 20.8504 17.2574 21.3744C16.3499 21.8984 15.8388 22.852 15.8017 23.8424C15.785 24.2889 15.7436 24.4772 15.6936 24.5979C15.535 24.9808 15.2308 25.285 14.8479 25.4436C14.7515 25.4835 14.605 25.5204 14.3041 25.5409C13.9947 25.562 13.5952 25.5625 13 25.5625C12.4047 25.5625 12.0052 25.562 11.6959 25.5409C11.395 25.5204 11.2485 25.4835 11.152 25.4436C10.7692 25.285 10.465 24.9808 10.3064 24.5979C10.2564 24.4772 10.2149 24.2889 10.1982 23.8425C10.1612 22.8521 9.64996 21.8984 8.74238 21.3744C7.83479 20.8504 6.75327 20.8845 5.87698 21.3477C5.48206 21.5564 5.29828 21.6146 5.16868 21.6317C4.75783 21.6858 4.34231 21.5744 4.01354 21.3221C3.93073 21.2586 3.82556 21.1501 3.65732 20.8998C3.48438 20.6425 3.2842 20.2968 2.98657 19.7812C2.68894 19.2657 2.48964 18.9195 2.35325 18.6411C2.22058 18.3702 2.17923 18.2249 2.1656 18.1214C2.11151 17.7106 2.22285 17.295 2.47512 16.9663C2.5547 16.8626 2.69701 16.7325 3.07525 16.4949C3.91448 15.9676 4.48477 15.048 4.48483 14.0001C4.48489 12.952 3.91457 12.0323 3.07526 11.505C2.69711 11.2674 2.55481 11.1373 2.47524 11.0336C2.22297 10.7049 2.11163 10.2894 2.16572 9.8785C2.17935 9.77501 2.2207 9.62969 2.35337 9.35883C2.48976 9.08039 2.68907 8.73417 2.98669 8.21867C3.28432 7.70316 3.4845 7.35745 3.65745 7.10011C3.82568 6.84978 3.93085 6.74132 4.01367 6.67777C4.34243 6.4255 4.75795 6.31416 5.16881 6.36825C5.29841 6.38531 5.4822 6.44354 5.87716 6.6523C6.75342 7.11544 7.83489 7.14953 8.74243 6.62557C9.64998 6.1016 10.1612 5.14796 10.1982 4.15752C10.2149 3.71111 10.2564 3.52283 10.3064 3.40206C10.465 3.0192 10.7692 2.71502 11.152 2.55644Z" fill="white"/>
</svg>
