<svg width="22" height="22" viewBox="0 0 22 22" fill="none" xmlns="http://www.w3.org/2000/svg">
<path fill-rule="evenodd" clip-rule="evenodd" d="M13.3472 8.76386C13.6157 8.49538 14.051 8.49538 14.3195 8.76386L16.5834 11.0277L18.8472 8.76389C19.1157 8.4954 19.551 8.4954 19.8195 8.76389C20.088 9.03237 20.088 9.46767 19.8195 9.73616L17.5557 12L19.8195 14.2638C20.088 14.5323 20.088 14.9676 19.8195 15.2361C19.551 15.5046 19.1157 15.5046 18.8472 15.2361L16.5834 12.9723L14.3195 15.2361C14.051 15.5046 13.6157 15.5046 13.3473 15.2361C13.0788 14.9677 13.0788 14.5323 13.3473 14.2639L15.6111 12L13.3472 9.73614C13.0788 9.46765 13.0788 9.03235 13.3472 8.76386Z" fill="black"/>
<path d="M3.68099 8.16363C3.05988 8.95215 3.04093 9.87326 3.00304 11.7155C3.00104 11.8122 3 11.9072 3 12C3 12.0928 3.00104 12.1878 3.00304 12.2845C3.04093 14.1267 3.05988 15.0478 3.68099 15.8364C3.79436 15.9803 3.9607 16.1513 4.10011 16.2673C4.86393 16.9026 5.8724 16.9026 7.88932 16.9026C8.60991 16.9026 8.97021 16.9026 9.31366 16.9955C9.38503 17.0148 9.45565 17.037 9.52534 17.0622C9.86075 17.1833 10.1616 17.3916 10.7632 17.8084C13.137 19.4526 14.3239 20.2747 15.3201 19.9176C15.5111 19.8491 15.6959 19.7503 15.861 19.6284C16.647 19.0481 16.7702 17.7654 16.8852 15.2969L15.591 16.591C14.7123 17.4697 13.2877 17.4697 12.409 16.591C11.5304 15.7123 11.5304 14.2877 12.409 13.409L13.818 12L12.409 10.591C11.5303 9.71231 11.5303 8.28769 12.409 7.40901C13.2877 6.53033 14.7123 6.53033 15.591 7.40901L16.8852 8.70318C16.7702 6.23464 16.647 4.95188 15.861 4.37162C15.6959 4.24972 15.5111 4.15088 15.3201 4.08241C14.3239 3.72527 13.137 4.54738 10.7632 6.19161C10.1616 6.60836 9.86075 6.81675 9.52534 6.93781C9.45565 6.96296 9.38503 6.98522 9.31366 7.00452C8.97021 7.09741 8.60991 7.09741 7.88932 7.09741C5.8724 7.09741 4.86393 7.09741 4.10011 7.73274C3.9607 7.8487 3.79436 8.01971 3.68099 8.16363Z" fill="black"/>
</svg>
