<svg width="38" height="26" viewBox="0 0 38 26" fill="none" xmlns="http://www.w3.org/2000/svg">
<rect x="12" y="11" width="14" height="15" rx="3" fill="black"/>
<path d="M16 2L16 14" stroke="black" stroke-width="2" stroke-linecap="round"/>
<path d="M19 2L19 14" stroke="black" stroke-width="2" stroke-linecap="round"/>
<path d="M22 2L22 14" stroke="black" stroke-width="2" stroke-linecap="round"/>
<path d="M30.9549 0.53033C30.662 0.237437 30.1871 0.237437 29.8942 0.53033C29.6013 0.823223 29.6013 1.2981 29.8942 1.59099C33.1161 4.81282 33.1161 10.0364 29.8942 13.2583C29.6013 13.5511 29.6013 14.026 29.8942 14.3189C30.1871 14.6118 30.662 14.6118 30.9549 14.3189C34.7625 10.5113 34.7625 4.33794 30.9549 0.53033Z" fill="black"/>
<path d="M28.8336 2.65165C28.5407 2.35876 28.0658 2.35876 27.7729 2.65165C27.48 2.94454 27.48 3.41942 27.7729 3.71231C29.8232 5.76256 29.8232 9.08668 27.7729 11.1369C27.48 11.4298 27.48 11.9047 27.7729 12.1976C28.0658 12.4905 28.5407 12.4905 28.8336 12.1976C31.4696 9.56155 31.4696 5.28769 28.8336 2.65165Z" fill="black"/>
<path d="M26.7123 4.77297C26.4194 4.48008 25.9445 4.48008 25.6516 4.77297C25.3587 5.06586 25.3587 5.54074 25.6516 5.83363C26.5303 6.71231 26.5303 8.13693 25.6516 9.01561C25.3587 9.3085 25.3587 9.78338 25.6516 10.0763C25.9445 10.3692 26.4194 10.3692 26.7123 10.0763C28.1767 8.61181 28.1767 6.23744 26.7123 4.77297Z" fill="black"/>
<path d="M6.89423 0.53033C7.18712 0.237437 7.662 0.237437 7.95489 0.53033C8.24778 0.823223 8.24778 1.2981 7.95489 1.59099C4.73307 4.81282 4.73307 10.0364 7.95489 13.2583C8.24778 13.5511 8.24778 14.026 7.95489 14.3189C7.662 14.6118 7.18712 14.6118 6.89423 14.3189C3.08662 10.5113 3.08662 4.33794 6.89423 0.53033Z" fill="black"/>
<path d="M9.01555 2.65165C9.30844 2.35876 9.78332 2.35876 10.0762 2.65165C10.3691 2.94454 10.3691 3.41942 10.0762 3.71231C8.02596 5.76256 8.02596 9.08668 10.0762 11.1369C10.3691 11.4298 10.3691 11.9047 10.0762 12.1976C9.78332 12.4905 9.30844 12.4905 9.01555 12.1976C6.37951 9.56155 6.37951 5.28769 9.01555 2.65165Z" fill="black"/>
<path d="M11.1369 4.77297C11.4298 4.48008 11.9046 4.48008 12.1975 4.77297C12.4904 5.06586 12.4904 5.54074 12.1975 5.83363C11.3189 6.71231 11.3189 8.13693 12.1975 9.01561C12.4904 9.3085 12.4904 9.78338 12.1975 10.0763C11.9046 10.3692 11.4298 10.3692 11.1369 10.0763C9.67241 8.61181 9.6724 6.23744 11.1369 4.77297Z" fill="black"/>
</svg>
