<svg width="90" height="82" viewBox="0 0 90 82" fill="none" xmlns="http://www.w3.org/2000/svg">
<path fill-rule="evenodd" clip-rule="evenodd" d="M26.6602 9.69442C27.7719 4.23659 32.6287 0.375 38.1931 0.375H51.807C57.3714 0.375 62.2282 4.23659 63.3399 9.69441C63.5966 10.9544 64.738 11.8786 65.9251 11.8786H65.9934L66.0616 11.8816C71.9092 12.1373 76.4008 12.8549 80.1507 15.3149C82.5133 16.8649 84.5457 18.859 86.1293 21.186C88.0996 24.0811 88.9686 27.4039 89.385 31.4227C89.7918 35.3491 89.7918 40.2708 89.7917 46.5044V46.8593C89.7918 53.0928 89.7918 58.0145 89.385 61.9409C88.9686 65.9597 88.0996 69.2825 86.1293 72.1777C84.5457 74.5046 82.5133 76.4988 80.1507 78.0487C77.2196 79.9716 73.8592 80.8194 69.7835 81.2265C65.7931 81.6251 60.7876 81.625 54.431 81.625H35.5691C29.2125 81.625 24.207 81.6251 20.2165 81.2265C16.1408 80.8194 12.7805 79.9716 9.84941 78.0487C7.48677 76.4988 5.45443 74.5046 3.87083 72.1777C1.90053 69.2825 1.03152 65.9597 0.615132 61.9409C0.20831 58.0145 0.208338 53.0928 0.208375 46.8592V46.5044C0.208338 40.2708 0.20831 35.3491 0.615132 31.4227C1.03152 27.4039 1.90053 24.0811 3.87083 21.186C5.45443 18.859 7.48677 16.8649 9.84941 15.3149C13.5993 12.8549 18.0909 12.1373 23.9385 11.8816L24.0067 11.8786H24.075C25.262 11.8786 26.4035 10.9544 26.6602 9.69442ZM38.1931 6.625C35.5218 6.625 33.2878 8.47081 32.7844 10.9419C31.9691 14.9441 28.4209 18.0911 24.1514 18.1282C18.5322 18.3779 15.5224 19.0682 13.2777 20.5407C11.5963 21.6438 10.1564 23.0588 9.03779 24.7024C7.88715 26.3931 7.1957 28.5552 6.83185 32.0668C6.46229 35.6336 6.45838 40.2317 6.45838 46.6818C6.45838 53.132 6.46229 57.73 6.83185 61.2968C7.1957 64.8084 7.88715 66.9705 9.03779 68.6613C10.1564 70.3049 11.5963 71.7198 13.2777 72.8229C15.0174 73.9642 17.2436 74.6485 20.8377 75.0074C24.4812 75.3714 29.1748 75.375 35.7408 75.375H54.2593C60.8253 75.375 65.5189 75.3714 69.1624 75.0074C72.7565 74.6485 74.9827 73.9642 76.7224 72.8229C78.4038 71.7198 79.8437 70.3049 80.9623 68.6613C82.1129 66.9705 82.8044 64.8084 83.1682 61.2968C83.5378 57.73 83.5417 53.132 83.5417 46.6818C83.5417 40.2317 83.5378 35.6336 83.1682 32.0668C82.8044 28.5552 82.1129 26.3931 80.9623 24.7024C79.8437 23.0588 78.4038 21.6438 76.7224 20.5407C74.4777 19.0682 71.4679 18.3779 65.8487 18.1282C61.5792 18.0911 58.031 14.9441 57.2157 10.9419C56.7123 8.47081 54.4783 6.625 51.807 6.625H38.1931ZM45 35.7917C39.8224 35.7917 35.625 39.989 35.625 45.1667C35.625 50.3443 39.8224 54.5417 45 54.5417C50.1777 54.5417 54.375 50.3443 54.375 45.1667C54.375 39.989 50.1777 35.7917 45 35.7917ZM29.375 45.1667C29.375 36.5372 36.3706 29.5417 45 29.5417C53.6295 29.5417 60.625 36.5372 60.625 45.1667C60.625 53.7961 53.6295 60.7917 45 60.7917C36.3706 60.7917 29.375 53.7961 29.375 45.1667ZM66.875 32.6667C66.875 30.9408 68.2742 29.5417 70 29.5417H74.1667C75.8926 29.5417 77.2917 30.9408 77.2917 32.6667C77.2917 34.3926 75.8926 35.7917 74.1667 35.7917H70C68.2742 35.7917 66.875 34.3926 66.875 32.6667Z" fill="#2A85FF"/>
</svg>
