<svg width="100" height="100" viewBox="0 0 100 100" fill="none" xmlns="http://www.w3.org/2000/svg">
<path d="M100 50C100 77.6142 77.6142 100 50 100C22.3858 100 0 77.6142 0 50C0 22.3858 22.3858 0 50 0C77.6142 0 100 22.3858 100 50Z" fill="#FF6600"/>
<path d="M53.9648 25.5078L53.3496 60.7129H46.582L45.9668 25.5078H53.9648ZM50 75.4785C47.334 75.4785 45.0781 73.291 45.1465 70.625C45.0781 67.959 47.334 65.7715 50 65.7715C52.5977 65.7715 54.8535 67.959 54.8535 70.625C54.8535 73.291 52.5977 75.4785 50 75.4785Z" fill="white"/>
</svg>
