<svg width="79" height="90" viewBox="0 0 79 90" fill="none" xmlns="http://www.w3.org/2000/svg">
<path d="M11.375 20.9722H67.625H11.375ZM69.625 77.375C69.625 84.0024 64.2524 89.375 57.625 89.375H21.375C14.7476 89.375 9.375 84.0024 9.375 77.375H13.375C13.375 81.7933 16.9567 85.375 21.375 85.375H57.625C62.0433 85.375 65.625 81.7933 65.625 77.375H69.625ZM21.375 89.375C14.7476 89.375 9.375 84.0024 9.375 77.375V20.9722H13.375V77.375C13.375 81.7933 16.9567 85.375 21.375 85.375V89.375ZM69.625 20.9722V77.375C69.625 84.0024 64.2524 89.375 57.625 89.375V85.375C62.0433 85.375 65.625 81.7933 65.625 77.375V20.9722H69.625Z" fill="#2A85FF"/>
<path d="M2 19.5496H77" stroke="#2A85FF" stroke-width="4" stroke-linecap="round"/>
<path d="M31.998 44.6875L31.998 63.6597" stroke="#2A85FF" stroke-width="4" stroke-linecap="round"/>
<path d="M47.002 44.6875L47.002 63.6597" stroke="#2A85FF" stroke-width="4" stroke-linecap="round"/>
<path d="M23.4375 9C23.4375 4.02944 27.4669 0 32.4375 0H46.5625C51.5331 0 55.5625 4.02944 55.5625 9H51.5625C51.5625 6.23858 49.3239 4 46.5625 4H32.4375C29.6761 4 27.4375 6.23858 27.4375 9H23.4375ZM53.5625 20.9722H25.4375H53.5625ZM23.4375 20.9722V9C23.4375 4.02944 27.4669 0 32.4375 0V4C29.6761 4 27.4375 6.23858 27.4375 9V20.9722H23.4375ZM46.5625 0C51.5331 0 55.5625 4.02944 55.5625 9V20.9722H51.5625V9C51.5625 6.23858 49.3239 4 46.5625 4V0Z" fill="#2A85FF"/>
</svg>
