<svg width="32" height="32" viewBox="0 0 32 32" fill="none" xmlns="http://www.w3.org/2000/svg">
<circle cx="12.0013" cy="7.99996" r="5.33333" fill="black"/>
<ellipse cx="12.0013" cy="22.6679" rx="9.33333" ry="5.33333" fill="black"/>
<path d="M27.9995 22.6673C27.9995 24.8764 25.2855 26.6672 21.9718 26.6672C22.948 25.6001 23.6193 24.2607 23.6193 22.6691C23.6193 21.0757 22.9465 19.735 21.9684 18.6673C25.2821 18.6673 27.9995 20.4581 27.9995 22.6673Z" fill="black"/>
<path d="M23.9995 8.00098C23.9995 10.2101 22.2087 12.001 19.9995 12.001C19.5178 12.001 19.056 11.9158 18.6283 11.7597C19.2591 10.6503 19.6193 9.36696 19.6193 7.99949C19.6193 6.63303 19.2596 5.35058 18.6297 4.24169C19.057 4.08594 19.5184 4.00098 19.9995 4.00098C22.2087 4.00098 23.9995 5.79184 23.9995 8.00098Z" fill="black"/>
</svg>
