<svg width="30" height="30" viewBox="0 0 30 30" fill="none" xmlns="http://www.w3.org/2000/svg">
<circle cx="15" cy="15" r="14" stroke="black" stroke-width="2"/>
<circle cx="15" cy="15" r="10" stroke="black" stroke-width="2"/>
<path d="M13.6807 16.748C13.6953 14.8877 14.2227 14.3164 15.1455 13.7451C15.7754 13.3496 16.2441 12.8516 16.2441 12.1191C16.2441 11.2988 15.6143 10.7715 14.8086 10.7715C14.0762 10.7715 13.373 11.2402 13.3291 12.2217H11.498C11.542 10.2588 13.0215 9.24805 14.8232 9.24805C16.8008 9.24805 18.1631 10.3467 18.1631 12.0898C18.1631 13.2764 17.5625 14.0527 16.6104 14.624C15.7607 15.1367 15.4092 15.6494 15.3945 16.748V16.8799H13.6807V16.748ZM14.5889 20.1172C13.959 20.1172 13.4463 19.6045 13.4463 18.9746C13.4463 18.3594 13.959 17.8467 14.5889 17.8467C15.1895 17.8467 15.7168 18.3594 15.7168 18.9746C15.7168 19.6045 15.1895 20.1172 14.5889 20.1172Z" fill="black"/>
</svg>
