<svg width="100" height="100" viewBox="0 0 100 100" fill="none" xmlns="http://www.w3.org/2000/svg">
<circle cx="37.5041" cy="24.9997" r="16.6667" fill="#FF6600"/>
<ellipse cx="37.5041" cy="70.8376" rx="29.1667" ry="16.6667" fill="#FF6600"/>
<path d="M87.4985 70.8351C87.4985 77.7387 79.0171 83.335 68.6617 83.335C71.7126 80.0003 73.8104 75.8145 73.8104 70.8409C73.8104 65.8615 71.7077 61.6718 68.6511 58.3353C79.0065 58.3353 87.4985 63.9315 87.4985 70.8351Z" fill="#FF6600"/>
<path d="M74.9985 25.0029C74.9985 31.9065 69.4021 37.5029 62.4985 37.5029C60.9932 37.5029 59.55 37.2368 58.2134 36.7491C60.1846 33.282 61.3104 29.2716 61.3104 24.9983C61.3104 20.7281 60.1862 16.7204 58.2178 13.2552C59.5531 12.7684 60.9948 12.5029 62.4985 12.5029C69.4021 12.5029 74.9985 18.0994 74.9985 25.0029Z" fill="#FF6600"/>
</svg>
