<svg width="24" height="27" viewBox="0 0 24 27" fill="none" xmlns="http://www.w3.org/2000/svg">
<path fill-rule="evenodd" clip-rule="evenodd" d="M20.331 14.452L20.382 4.343C20.3821 4.31343 20.3791 4.28394 20.373 4.255C20.3508 4.04424 20.2513 3.84917 20.0938 3.70737C19.9363 3.56556 19.7319 3.48707 19.52 3.487H9.361L5.88 0C3.50512 2.37475 2.17087 5.59565 2.17078 8.95415C2.17068 12.3126 3.50475 15.5336 5.8795 17.9085C8.25425 20.2834 11.4752 21.6176 14.8336 21.6177C18.1921 21.6178 21.4131 20.2837 23.788 17.909L20.331 14.452ZM4.771 14.941C0.394 7.146 5.794 1.687 5.794 1.687L6.814 2.825C6.814 2.825 2.494 6.906 4.771 14.941ZM18.582 12.703L11.082 5.203H18.582V12.703ZM7.794 23.137C7.711 21.675 7.868 19.737 5.719 19.737C3.529 19.737 3.728 21.676 3.644 23.137C2.38 25.961 0.081 23.3 0 26.174H11.438C11.357 23.299 9.058 25.96 7.794 23.137ZM4.111 23.037C3.75 19.799 5.97 20.037 5.97 20.037C5.06151 20.8258 4.41336 21.8714 4.111 23.036V23.037Z" fill="black"/>
</svg>
