<svg width="204" height="97" viewBox="0 0 204 97" fill="none" xmlns="http://www.w3.org/2000/svg">
<ellipse cx="160.5" cy="42.8409" rx="32.8409" ry="32.8409" fill="white" stroke="#2A85FF" stroke-width="2"/>
<path d="M118 79.0908C118 70.8065 124.716 64.0908 133 64.0908H188C196.284 64.0908 203 70.8065 203 79.0908V87.2726H118V79.0908Z" fill="white" stroke="#2A85FF" stroke-width="2"/>
<ellipse cx="43.5" cy="42.8409" rx="32.8409" ry="32.8409" fill="white" stroke="#2A85FF" stroke-width="2"/>
<path d="M1 79.0908C1 70.8065 7.71573 64.0908 16 64.0908H71C79.2843 64.0908 86 70.8065 86 79.0908V87.2726H1V79.0908Z" fill="white" stroke="#2A85FF" stroke-width="2"/>
<ellipse cx="100" cy="41.6364" rx="38.6364" ry="38.6364" fill="white" stroke="#2A85FF" stroke-width="5"/>
<path d="M50 81.6367C50 73.3525 56.7157 66.6367 65 66.6367H135C143.284 66.6367 150 73.3524 150 81.6367V93.9094H50V81.6367Z" fill="white" stroke="#2A85FF" stroke-width="5"/>
</svg>
