<svg width="25" height="25" viewBox="0 0 25 25" fill="none" xmlns="http://www.w3.org/2000/svg">
<path d="M1.59874 11.4287C1.67549 10.1694 1.71386 9.53985 2.04015 8.93427C2.33826 8.38099 2.90865 7.84431 3.47904 7.58041C4.10334 7.29157 4.81893 7.29157 6.25009 7.29157C6.78349 7.29157 7.0502 7.29157 7.30854 7.24794C7.56394 7.20481 7.81298 7.1301 8.04994 7.02552C8.28964 6.91973 8.5123 6.77293 8.95762 6.47931L9.18568 6.32894C11.8346 4.58239 13.1591 3.70912 14.2709 4.08853C14.4841 4.16127 14.6904 4.26628 14.8747 4.39578C15.8358 5.07126 15.9089 6.64282 16.0549 9.78596C16.109 10.9498 16.1458 11.9459 16.1458 12.4999C16.1458 13.0539 16.109 14.05 16.0549 15.2138C15.9089 18.357 15.8358 19.9285 14.8747 20.604C14.6904 20.7335 14.4841 20.8385 14.2709 20.9113C13.1591 21.2907 11.8346 20.4174 9.18568 18.6709L8.95762 18.5205C8.5123 18.2269 8.28964 18.0801 8.04994 17.9743C7.81298 17.8697 7.56394 17.795 7.30854 17.7519C7.0502 17.7082 6.78349 17.7082 6.25009 17.7082C4.81892 17.7082 4.10334 17.7082 3.47904 17.4194C2.90865 17.1555 2.33826 16.6188 2.04015 16.0655C1.71386 15.46 1.67549 14.8304 1.59874 13.5712C1.57603 13.1986 1.5625 12.8357 1.5625 12.4999C1.5625 12.1641 1.57603 11.8012 1.59874 11.4287Z" stroke="#2A85FF" stroke-width="1.5"/>
<path d="M20.833 6.25C20.833 6.25 22.3955 8.125 22.3955 12.5C22.3955 16.875 20.833 18.75 20.833 18.75" stroke="#2A85FF" stroke-width="1.5" stroke-linecap="round"/>
<path d="M18.75 9.375C18.75 9.375 19.2708 10.3125 19.2708 12.5C19.2708 14.6875 18.75 15.625 18.75 15.625" stroke="#2A85FF" stroke-width="1.5" stroke-linecap="round"/>
</svg>
