<svg width="28" height="33" viewBox="0 0 28 33" fill="none" xmlns="http://www.w3.org/2000/svg">
<rect y="28.9995" width="28" height="4" rx="2" fill="black"/>
<path d="M6 27.4995C6 22.8051 9.80558 18.9995 14.5 18.9995C19.1944 18.9995 23 22.8051 23 27.4995V27.9995H6V27.4995Z" fill="black"/>
<path d="M4.75761 9.84908C4.3392 10.2675 4.3392 10.9459 4.75761 11.3643C5.17603 11.7827 5.85442 11.7827 6.27284 11.3643C10.8755 6.7617 18.3378 6.7617 22.9404 11.3643C23.3588 11.7827 24.0372 11.7827 24.4556 11.3643C24.874 10.9459 24.874 10.2675 24.4556 9.84908C19.0161 4.40963 10.1971 4.40963 4.75761 9.84908Z" fill="black"/>
<path d="M7.78807 12.8795C7.36965 13.298 7.36965 13.9763 7.78807 14.3948C8.20649 14.8132 8.88488 14.8132 9.3033 14.3948C12.2322 11.4658 16.981 11.4658 19.9099 14.3948C20.3283 14.8132 21.0067 14.8132 21.4251 14.3948C21.8436 13.9763 21.8435 13.298 21.4251 12.8795C17.6594 9.11376 11.5538 9.11376 7.78807 12.8795Z" fill="black"/>
<path d="M10.8185 15.91C10.4001 16.3284 10.4001 17.0068 10.8185 17.4252C11.2369 17.8436 11.9153 17.8436 12.3338 17.4252C13.589 16.17 15.6242 16.17 16.8794 17.4252C17.2979 17.8436 17.9763 17.8436 18.3947 17.4252C18.8131 17.0068 18.8131 16.3284 18.3947 15.91C16.3026 13.8179 12.9106 13.8179 10.8185 15.91Z" fill="black"/>
</svg>
