<svg width="80" height="89" viewBox="0 0 80 89" fill="none" xmlns="http://www.w3.org/2000/svg">
<path fill-rule="evenodd" clip-rule="evenodd" d="M68.374 48.6027L68.5455 14.6057C68.5458 14.5062 68.5357 14.4071 68.5152 14.3097C68.4405 13.6009 68.106 12.9449 67.5764 12.468C67.0467 11.9911 66.3593 11.7271 65.6466 11.7269H31.4814L19.7747 0C11.7879 7.98637 7.30073 18.8184 7.30042 30.1132C7.3001 41.4079 11.7866 52.2402 19.773 60.227C27.7594 68.2138 38.5914 72.701 49.8862 72.7013C61.1809 72.7016 72.0132 68.2151 80 60.2287L68.374 48.6027ZM16.0451 50.2472C1.32504 24.0323 19.4855 5.67345 19.4855 5.67345L22.9158 9.50059C22.9158 9.50059 8.38742 23.2252 16.0451 50.2472ZM62.492 42.7207L37.2692 17.4979H62.492V42.7207ZM26.2115 77.8107C25.9324 72.8939 26.4604 66.3763 19.2332 66.3763C11.8682 66.3763 12.5374 72.8973 12.2549 77.8107C8.00404 87.3079 0.272406 78.3588 0 88.0242H38.4665C38.1941 78.3555 30.4624 87.3045 26.2115 77.8107ZM13.8255 77.4744C12.6114 66.5848 20.0774 67.3852 20.0774 67.3852C17.022 70.0381 14.8423 73.5545 13.8255 77.471V77.4744Z" fill="#2A85FF"/>
</svg>
