<svg width="36" height="42" viewBox="0 0 36 42" fill="none" xmlns="http://www.w3.org/2000/svg">
<g filter="url(#filter0_i_282_2105)">
<circle cx="18" cy="20" r="18" fill="#AE0003"/>
</g>
<path d="M15.2549 25.4121C15.2891 21.0713 16.5195 19.7383 18.6729 18.4053C20.1426 17.4824 21.2363 16.3203 21.2363 14.6113C21.2363 12.6973 19.7666 11.4668 17.8867 11.4668C16.1777 11.4668 14.5371 12.5605 14.4346 14.8506H10.1621C10.2646 10.2705 13.7168 7.91211 17.9209 7.91211C22.5352 7.91211 25.7139 10.4756 25.7139 14.543C25.7139 17.3115 24.3125 19.123 22.0908 20.4561C20.1084 21.6523 19.2881 22.8486 19.2539 25.4121V25.7197H15.2549V25.4121ZM17.374 33.2734C15.9043 33.2734 14.708 32.0771 14.708 30.6074C14.708 29.1719 15.9043 27.9756 17.374 27.9756C18.7754 27.9756 20.0059 29.1719 20.0059 30.6074C20.0059 32.0771 18.7754 33.2734 17.374 33.2734Z" fill="white"/>
<defs>
<filter id="filter0_i_282_2105" x="0" y="2" width="36" height="38" filterUnits="userSpaceOnUse" color-interpolation-filters="sRGB">
<feFlood flood-opacity="0" result="BackgroundImageFix"/>
<feBlend mode="normal" in="SourceGraphic" in2="BackgroundImageFix" result="shape"/>
<feColorMatrix in="SourceAlpha" type="matrix" values="0 0 0 0 0 0 0 0 0 0 0 0 0 0 0 0 0 0 127 0" result="hardAlpha"/>
<feOffset dy="2"/>
<feGaussianBlur stdDeviation="1.5"/>
<feComposite in2="hardAlpha" operator="arithmetic" k2="-1" k3="1"/>
<feColorMatrix type="matrix" values="0 0 0 0 0 0 0 0 0 0 0 0 0 0 0 0 0 0 0.3 0"/>
<feBlend mode="normal" in2="shape" result="effect1_innerShadow_282_2105"/>
</filter>
</defs>
</svg>
