<svg width="36" height="36" viewBox="0 0 36 36" fill="none" xmlns="http://www.w3.org/2000/svg">
<g filter="url(#filter0_i_282_2098)">
<circle cx="18" cy="18" r="18" fill="#669900"/>
</g>
<circle cx="14.7511" cy="11.4998" r="4.33333" fill="white"/>
<ellipse cx="14.7511" cy="23.4178" rx="7.58333" ry="4.33333" fill="white"/>
<path d="M27.7496 23.4173C27.7496 25.2123 25.5444 26.6673 22.852 26.6673C23.6452 25.8003 24.1907 24.712 24.1907 23.4188C24.1907 22.1242 23.644 21.0349 22.8492 20.1674C25.5416 20.1674 27.7496 21.6224 27.7496 23.4173Z" fill="white"/>
<path d="M24.4996 11.501C24.4996 13.2959 23.0445 14.751 21.2496 14.751C20.8582 14.751 20.4829 14.6818 20.1354 14.555C20.6479 13.6535 20.9407 12.6108 20.9407 11.4998C20.9407 10.3895 20.6484 9.34753 20.1366 8.44656C20.4838 8.32001 20.8586 8.25098 21.2496 8.25098C23.0445 8.25098 24.4996 9.70605 24.4996 11.501Z" fill="white"/>
<defs>
<filter id="filter0_i_282_2098" x="0" y="0" width="36" height="38" filterUnits="userSpaceOnUse" color-interpolation-filters="sRGB">
<feFlood flood-opacity="0" result="BackgroundImageFix"/>
<feBlend mode="normal" in="SourceGraphic" in2="BackgroundImageFix" result="shape"/>
<feColorMatrix in="SourceAlpha" type="matrix" values="0 0 0 0 0 0 0 0 0 0 0 0 0 0 0 0 0 0 127 0" result="hardAlpha"/>
<feOffset dy="2"/>
<feGaussianBlur stdDeviation="1.5"/>
<feComposite in2="hardAlpha" operator="arithmetic" k2="-1" k3="1"/>
<feColorMatrix type="matrix" values="0 0 0 0 0 0 0 0 0 0 0 0 0 0 0 0 0 0 0.3 0"/>
<feBlend mode="normal" in2="shape" result="effect1_innerShadow_282_2098"/>
</filter>
</defs>
</svg>
