<svg width="28" height="23" viewBox="0 0 28 23" fill="none" xmlns="http://www.w3.org/2000/svg">
<path fill-rule="evenodd" clip-rule="evenodd" d="M2.7 3.987H25.3C26.0161 3.987 26.7028 4.27146 27.2092 4.77781C27.7155 5.28416 28 5.97092 28 6.687V20.25C28 20.9661 27.7155 21.6528 27.2092 22.1592C26.7028 22.6655 26.0161 22.95 25.3 22.95H2.7C1.98392 22.95 1.29716 22.6655 0.790812 22.1592C0.284464 21.6528 1.85202e-07 20.9661 1.85202e-07 20.25V6.688C-0.000131168 6.33335 0.0696096 5.98214 0.205239 5.65445C0.340867 5.32675 0.539727 5.02899 0.790458 4.77816C1.04119 4.52734 1.33888 4.32837 1.66652 4.19262C1.99417 4.05687 2.34535 3.987 2.7 3.987ZM14 7C15.1867 7 16.3467 7.35189 17.3334 8.01118C18.3201 8.67047 19.0892 9.60754 19.5433 10.7039C19.9974 11.8003 20.1162 13.0067 19.8847 14.1705C19.6532 15.3344 19.0818 16.4035 18.2426 17.2426C17.4035 18.0818 16.3344 18.6532 15.1705 18.8847C14.0067 19.1162 12.8003 18.9974 11.7039 18.5433C10.6075 18.0892 9.67047 17.3201 9.01118 16.3334C8.35189 15.3467 8 14.1867 8 13C8 11.4087 8.63214 9.88258 9.75736 8.75736C10.8826 7.63214 12.4087 7 14 7ZM14 9C14.7612 9.02416 15.4984 9.27196 16.1196 9.71248C16.7408 10.153 17.2186 10.7667 17.4932 11.4771C17.7678 12.1874 17.8271 12.9629 17.6638 13.7067C17.5004 14.4505 17.1216 15.1298 16.5746 15.6597C16.0276 16.1896 15.3367 16.5466 14.588 16.6863C13.8394 16.826 13.0662 16.7421 12.3649 16.445C11.6637 16.148 11.0654 15.651 10.6449 15.0162C10.2243 14.3813 9.99999 13.6366 10 12.875C10.0168 11.8308 10.4477 10.836 11.1978 10.1094C11.9478 9.38272 12.9558 8.98369 14 9ZM8 0H20V4H8V0Z" fill="black"/>
</svg>
