<svg width="28" height="28" viewBox="0 0 28 28" fill="none" xmlns="http://www.w3.org/2000/svg">
<path fill-rule="evenodd" clip-rule="evenodd" d="M8.0625 19C8.0625 17.1015 9.60152 15.5625 11.5 15.5625C13.3985 15.5625 14.9375 17.1015 14.9375 19C14.9375 20.8985 13.3985 22.4375 11.5 22.4375C9.60152 22.4375 8.0625 20.8985 8.0625 19ZM11.5 17.4375C10.6371 17.4375 9.9375 18.1371 9.9375 19C9.9375 19.8629 10.6371 20.5625 11.5 20.5625C12.3629 20.5625 13.0625 19.8629 13.0625 19C13.0625 18.1371 12.3629 17.4375 11.5 17.4375Z" fill="black"/>
<path fill-rule="evenodd" clip-rule="evenodd" d="M19.9375 9C19.9375 10.8985 18.3985 12.4375 16.5 12.4375C14.6015 12.4375 13.0625 10.8985 13.0625 9C13.0625 7.10152 14.6015 5.5625 16.5 5.5625C18.3985 5.5625 19.9375 7.10152 19.9375 9ZM16.5 10.5625C17.3629 10.5625 18.0625 9.86294 18.0625 9C18.0625 8.13706 17.3629 7.4375 16.5 7.4375C15.6371 7.4375 14.9375 8.13706 14.9375 9C14.9375 9.86295 15.6371 10.5625 16.5 10.5625Z" fill="black"/>
<path d="M15.5625 19C15.5625 18.4822 15.9822 18.0625 16.5 18.0625H22.75C23.2678 18.0625 23.6875 18.4822 23.6875 19C23.6875 19.5178 23.2678 19.9375 22.75 19.9375H16.5C15.9822 19.9375 15.5625 19.5178 15.5625 19Z" fill="black"/>
<path d="M11.5 8.0625C12.0178 8.0625 12.4375 8.48223 12.4375 9C12.4375 9.51777 12.0178 9.9375 11.5 9.9375H5.25C4.73223 9.9375 4.3125 9.51777 4.3125 9C4.3125 8.48223 4.73223 8.0625 5.25 8.0625H11.5Z" fill="black"/>
<path d="M4.3125 19C4.3125 18.4822 4.73223 18.0625 5.25 18.0625H6.5C7.01777 18.0625 7.4375 18.4822 7.4375 19C7.4375 19.5178 7.01777 19.9375 6.5 19.9375H5.25C4.73223 19.9375 4.3125 19.5178 4.3125 19Z" fill="black"/>
<path d="M22.75 8.0625C23.2678 8.0625 23.6875 8.48223 23.6875 9C23.6875 9.51777 23.2678 9.9375 22.75 9.9375H21.5C20.9822 9.9375 20.5625 9.51777 20.5625 9C20.5625 8.48223 20.9822 8.0625 21.5 8.0625H22.75Z" fill="black"/>
<path fill-rule="evenodd" clip-rule="evenodd" d="M13.9283 0.5625H14.0717C16.9572 0.562484 19.2185 0.562471 20.9829 0.799683C22.7888 1.04248 24.2138 1.54916 25.3323 2.66767C26.4508 3.78618 26.9575 5.21121 27.2003 7.01713C27.4375 8.78149 27.4375 11.0428 27.4375 13.9283V14.0717C27.4375 16.9572 27.4375 19.2185 27.2003 20.9829C26.9575 22.7888 26.4508 24.2138 25.3323 25.3323C24.2138 26.4508 22.7888 26.9575 20.9829 27.2003C19.2185 27.4375 16.9572 27.4375 14.0717 27.4375H13.9283C11.0428 27.4375 8.78149 27.4375 7.01713 27.2003C5.21121 26.9575 3.78618 26.4508 2.66767 25.3323C1.54916 24.2138 1.04248 22.7888 0.799683 20.9829C0.562471 19.2185 0.562484 16.9572 0.5625 14.0717V13.9283C0.562484 11.0428 0.562471 8.78149 0.799683 7.01713C1.04248 5.21121 1.54916 3.78618 2.66767 2.66767C3.78618 1.54916 5.21121 1.04248 7.01713 0.799683C8.78149 0.562471 11.0428 0.562484 13.9283 0.5625ZM7.26697 2.65796C5.66897 2.87281 4.70557 3.28143 3.9935 3.9935C3.28143 4.70557 2.87281 5.66897 2.65796 7.26697C2.43949 8.89194 2.4375 11.0272 2.4375 14C2.4375 16.9728 2.43949 19.1081 2.65796 20.733C2.87281 22.331 3.28143 23.2944 3.9935 24.0065C4.70557 24.7186 5.66897 25.1272 7.26697 25.342C8.89194 25.5605 11.0272 25.5625 14 25.5625C16.9728 25.5625 19.1081 25.5605 20.733 25.342C22.331 25.1272 23.2944 24.7186 24.0065 24.0065C24.7186 23.2944 25.1272 22.331 25.342 20.733C25.5605 19.1081 25.5625 16.9728 25.5625 14C25.5625 11.0272 25.5605 8.89194 25.342 7.26697C25.1272 5.66897 24.7186 4.70557 24.0065 3.9935C23.2944 3.28143 22.331 2.87281 20.733 2.65796C19.1081 2.43949 16.9728 2.4375 14 2.4375C11.0272 2.4375 8.89194 2.43949 7.26697 2.65796Z" fill="black"/>
</svg>
