<svg width="30" height="30" viewBox="0 0 30 30" fill="none" xmlns="http://www.w3.org/2000/svg">
<path d="M3.75 10C3.75 6.46447 3.75 4.6967 4.84835 3.59835C5.9467 2.5 7.71447 2.5 11.25 2.5H18.75C22.2855 2.5 24.0533 2.5 25.1517 3.59835C26.25 4.6967 26.25 6.46447 26.25 10V20C26.25 23.5355 26.25 25.3033 25.1517 26.4017C24.0533 27.5 22.2855 27.5 18.75 27.5H11.25C7.71447 27.5 5.9467 27.5 4.84835 26.4017C3.75 25.3033 3.75 23.5355 3.75 20V10Z" stroke="black" stroke-width="1.5"/>
<path d="M10 3.125V27.5" stroke="black" stroke-width="1.5" stroke-linecap="round"/>
<path d="M2.5 15H5" stroke="black" stroke-width="1.5" stroke-linecap="round"/>
<path d="M2.5 20H5" stroke="black" stroke-width="1.5" stroke-linecap="round"/>
<path d="M2.5 10H5" stroke="black" stroke-width="1.5" stroke-linecap="round"/>
<path d="M14.375 8.125H20.625" stroke="black" stroke-width="1.5" stroke-linecap="round"/>
<path d="M14.375 12.5H20.625" stroke="black" stroke-width="1.5" stroke-linecap="round"/>
</svg>
