<svg width="30" height="30" viewBox="0 0 30 30" fill="none" xmlns="http://www.w3.org/2000/svg">
<path fill-rule="evenodd" clip-rule="evenodd" d="M11.5625 11.25C11.5625 9.35152 13.1015 7.8125 15 7.8125C16.8985 7.8125 18.4375 9.35152 18.4375 11.25C18.4375 13.1485 16.8985 14.6875 15 14.6875C13.1015 14.6875 11.5625 13.1485 11.5625 11.25ZM15 9.6875C14.1371 9.6875 13.4375 10.3871 13.4375 11.25C13.4375 12.1129 14.1371 12.8125 15 12.8125C15.8629 12.8125 16.5625 12.1129 16.5625 11.25C16.5625 10.3871 15.8629 9.6875 15 9.6875Z" fill="white"/>
<path fill-rule="evenodd" clip-rule="evenodd" d="M15 15.3125C13.5053 15.3125 12.1058 15.6134 11.0452 16.1437C10.0407 16.6459 9.0625 17.5132 9.0625 18.75L9.06234 18.8281C9.06042 19.466 9.05719 20.5402 10.0753 21.2772C10.5477 21.6192 11.1711 21.8373 11.9434 21.9762C12.7228 22.1165 13.7215 22.1875 15 22.1875C16.2785 22.1875 17.2772 22.1165 18.0566 21.9762C18.8289 21.8373 19.4523 21.6192 19.9247 21.2772C20.9428 20.5402 20.9396 19.466 20.9377 18.8281L20.9375 18.75C20.9375 17.5132 19.9593 16.6459 18.9548 16.1437C17.8942 15.6134 16.4947 15.3125 15 15.3125ZM10.9375 18.75C10.9375 18.606 11.0786 18.2233 11.8837 17.8208C12.6328 17.4462 13.7333 17.1875 15 17.1875C16.2667 17.1875 17.3672 17.4462 18.1163 17.8208C18.9214 18.2233 19.0625 18.606 19.0625 18.75C19.0625 19.5056 19.0144 19.6215 18.8253 19.7583C18.6727 19.8688 18.3586 20.0168 17.7246 20.1309C17.0978 20.2436 16.2215 20.3125 15 20.3125C13.7785 20.3125 12.9022 20.2436 12.2754 20.1309C11.6414 20.0168 11.3273 19.8688 11.1747 19.7583C10.9856 19.6215 10.9375 19.5056 10.9375 18.75Z" fill="white"/>
<path fill-rule="evenodd" clip-rule="evenodd" d="M10.9042 2.56389C12.7092 1.94573 13.8281 1.5625 15 1.5625C16.1719 1.5625 17.2909 1.94573 19.0958 2.5639L20.0051 2.87517C21.8567 3.509 23.2857 3.99815 24.3087 4.41373C24.824 4.62307 25.267 4.82584 25.6238 5.03301C25.9671 5.23238 26.3115 5.48105 26.5455 5.81443C26.7767 6.14395 26.8963 6.54906 26.9715 6.93902C27.0496 7.34445 27.0967 7.83079 27.1271 8.3892C27.1875 9.498 27.1875 11.017 27.1875 12.9873V14.9892C27.1875 22.6155 21.4275 26.2719 18.0021 27.7682L17.9682 27.783C17.5435 27.9686 17.1442 28.1431 16.6855 28.2605C16.2012 28.3845 15.6866 28.4375 15 28.4375C14.3134 28.4375 13.7988 28.3845 13.3145 28.2605C12.8558 28.1431 12.4565 27.9686 12.0318 27.783L11.9979 27.7682C8.57253 26.2719 2.8125 22.6155 2.8125 14.9892V12.9874C2.8125 11.0172 2.8125 9.49796 2.87287 8.3892C2.90328 7.83079 2.95039 7.34445 3.02852 6.93902C3.10367 6.54906 3.22326 6.14395 3.45454 5.81443C3.68853 5.48105 4.03293 5.23238 4.37623 5.03301C4.73296 4.82584 5.17598 4.62307 5.69129 4.41373C6.71425 3.99815 8.14327 3.509 9.99494 2.87517L10.9042 2.56389ZM15 3.4375C14.1778 3.4375 13.3689 3.70205 11.3508 4.39287L10.6348 4.63797C8.74401 5.28517 7.36512 5.75756 6.39699 6.15086C5.91375 6.34717 5.56363 6.51168 5.31786 6.65441C5.19653 6.72488 5.11292 6.78302 5.05709 6.82841C5.00975 6.86689 4.9917 6.88868 4.98911 6.89186C4.9867 6.89578 4.97116 6.92175 4.94929 6.98317C4.9243 7.05331 4.89662 7.15386 4.86964 7.29382C4.81505 7.57712 4.77368 7.96627 4.7451 8.49115C4.68784 9.54264 4.6875 11.0104 4.6875 13.0208V14.9892C4.6875 21.4581 9.52487 24.6418 12.7485 26.05C13.2128 26.2528 13.481 26.3676 13.7795 26.4441C14.0646 26.517 14.4125 26.5625 15 26.5625C15.5875 26.5625 15.9354 26.517 16.2205 26.4441C16.519 26.3676 16.7872 26.2528 17.2515 26.05C20.4751 24.6418 25.3125 21.4581 25.3125 14.9892V13.0208C25.3125 11.0104 25.3122 9.54264 25.2549 8.49115C25.2263 7.96627 25.1849 7.57712 25.1304 7.29382C25.1034 7.15386 25.0757 7.05331 25.0507 6.98317C25.0288 6.92171 25.0133 6.89575 25.0109 6.89185C25.0083 6.88865 24.9902 6.86686 24.9429 6.82841C24.8871 6.78302 24.8035 6.72488 24.6821 6.65441C24.4364 6.51168 24.0862 6.34717 23.603 6.15086C22.6349 5.75756 21.256 5.28517 19.3652 4.63797L18.6492 4.39287C16.6311 3.70205 15.8222 3.4375 15 3.4375Z" fill="white"/>
</svg>
