<svg width="26" height="27" viewBox="0 0 26 27" fill="none" xmlns="http://www.w3.org/2000/svg">
<path fill-rule="evenodd" clip-rule="evenodd" d="M4.5625 8.62538C4.5625 4.12769 8.38595 0.5625 13 0.5625C17.5099 0.5625 21.2645 3.9686 21.4317 8.32235L22.0289 8.52143C22.6078 8.71436 23.1152 8.88345 23.5178 9.07072C23.9529 9.27316 24.3517 9.53392 24.6566 9.95693C24.9615 10.3799 25.0828 10.8407 25.1372 11.3176C25.1876 11.7587 25.1875 12.2935 25.1875 12.9037V20.089C25.1875 20.8507 25.1876 21.5006 25.1285 22.022C25.0663 22.5704 24.9272 23.1093 24.5505 23.5691C24.3342 23.8332 24.0716 24.0556 23.7756 24.2256C23.2601 24.5216 22.7057 24.5701 22.1545 24.5413C21.6305 24.5139 20.9894 24.407 20.238 24.2818L20.186 24.2731C18.57 24.0038 17.9189 23.902 17.2842 23.9551C17.0521 23.9745 16.8214 24.0092 16.5938 24.0589C15.9718 24.1948 15.3736 24.4864 13.895 25.2256C13.8436 25.2513 13.7928 25.2768 13.7425 25.3019C12.0142 26.1664 10.9494 26.699 9.80039 26.8654C9.4548 26.9154 9.10602 26.9402 8.75682 26.9396C7.59586 26.9374 6.47494 26.5635 4.65669 25.9571C4.6041 25.9396 4.55092 25.9218 4.49714 25.9039L4.01769 25.7441L3.97105 25.7286C3.39216 25.5356 2.88478 25.3665 2.48225 25.1793C2.04708 24.9768 1.64827 24.7161 1.34339 24.2931C1.0385 23.8701 0.917237 23.4093 0.862795 22.9324C0.812435 22.4913 0.812466 21.9565 0.812502 21.3463L0.812502 15.0715C0.812464 14.0889 0.812431 13.2606 0.896613 12.6118C0.984482 11.9347 1.18315 11.2726 1.72828 10.7747C1.88852 10.6284 2.06517 10.5011 2.25469 10.3953C2.89941 10.0356 3.59033 10.0565 4.26051 10.1873C4.39647 10.2138 4.53887 10.2465 4.68774 10.2844C4.60514 9.72713 4.5625 9.17154 4.5625 8.62538ZM5.18587 12.3866C4.6509 12.2141 4.24031 12.0937 3.90142 12.0276C3.40748 11.9312 3.24557 11.9896 3.16823 12.0327C3.10506 12.068 3.04618 12.1104 2.99276 12.1592C2.92737 12.2189 2.82078 12.3541 2.75602 12.8531C2.68938 13.3667 2.6875 14.0719 2.6875 15.135V21.2972C2.6875 21.971 2.68892 22.3976 2.72569 22.7197C2.75973 23.0179 2.81543 23.1287 2.86446 23.1967C2.9135 23.2648 3.00104 23.3527 3.27312 23.4792C3.56705 23.616 3.97136 23.7522 4.61061 23.9653L5.09007 24.1251C7.11953 24.8016 7.93861 25.063 8.76038 25.0646C9.01847 25.065 9.27627 25.0467 9.53171 25.0097C10.3448 24.892 11.1262 24.5138 13.0565 23.5486C13.0956 23.529 13.1343 23.5097 13.1725 23.4906C14.4983 22.8275 15.3151 22.419 16.1937 22.2271C16.5017 22.1598 16.8138 22.1129 17.1279 22.0866C18.0241 22.0116 18.918 22.1607 20.3682 22.4026C20.4097 22.4095 20.4518 22.4165 20.4943 22.4236C21.3121 22.5599 21.8473 22.6477 22.2524 22.6689C22.6423 22.6893 22.7763 22.6373 22.8419 22.5996C22.9405 22.543 23.0281 22.4688 23.1002 22.3808C23.1481 22.3223 23.2214 22.1987 23.2654 21.8107C23.3111 21.4077 23.3125 20.8653 23.3125 20.0362V12.9528C23.3125 12.279 23.3111 11.8524 23.2743 11.5303C23.2403 11.2321 23.1846 11.1213 23.1355 11.0533C23.0865 10.9852 22.999 10.8973 22.7269 10.7708C22.433 10.634 22.0286 10.4978 21.3894 10.2847L21.3158 10.2602C21.0781 11.8869 20.4995 13.5292 19.6466 14.9949C18.506 16.9551 16.8372 18.6623 14.7464 19.5744C13.6367 20.0585 12.3633 20.0585 11.2536 19.5744C9.16284 18.6623 7.49399 16.9551 6.35342 14.9949C5.87339 14.17 5.48025 13.2891 5.18587 12.3866ZM13 2.4375C9.32979 2.4375 6.4375 5.25259 6.4375 8.62538C6.4375 10.3972 6.9843 12.3511 7.97402 14.0519C8.96401 15.7533 10.3594 17.1387 12.0034 17.8559C12.635 18.1314 13.365 18.1314 13.9966 17.8559C15.6406 17.1387 17.036 15.7533 18.026 14.0519C19.0157 12.3511 19.5625 10.3972 19.5625 8.62538C19.5625 5.25259 16.6702 2.4375 13 2.4375ZM13 7.4375C12.1371 7.4375 11.4375 8.13706 11.4375 9C11.4375 9.86294 12.1371 10.5625 13 10.5625C13.8629 10.5625 14.5625 9.86294 14.5625 9C14.5625 8.13706 13.8629 7.4375 13 7.4375ZM9.5625 9C9.5625 7.10152 11.1015 5.5625 13 5.5625C14.8985 5.5625 16.4375 7.10152 16.4375 9C16.4375 10.8985 14.8985 12.4375 13 12.4375C11.1015 12.4375 9.5625 10.8985 9.5625 9Z" fill="black"/>
</svg>
