<svg width="34" height="34" viewBox="0 0 34 34" fill="none" xmlns="http://www.w3.org/2000/svg">
<path fill-rule="evenodd" clip-rule="evenodd" d="M14.4763 1.375C13.5382 1.375 12.7567 2.06159 12.6787 2.9542C12.4184 5.93685 9.2922 7.77035 6.56196 6.54164L6.3467 6.44477C5.49813 6.06288 4.48463 6.3658 4.01558 7.14151L1.61684 11.1085C1.14778 11.8842 1.37978 12.8737 2.15044 13.3844C4.64947 15.0405 4.64947 18.7094 2.15045 20.3656C1.37978 20.8763 1.14778 21.8658 1.61684 22.6415L4.01558 26.6085C4.48463 27.3842 5.49813 27.6871 6.3467 27.3052L6.56193 27.2083C9.29218 25.9796 12.4184 27.8131 12.6787 30.7958C12.7567 31.6884 13.5382 32.375 14.4763 32.375H19.2737C20.2119 32.375 20.9934 31.6884 21.0713 30.7958C21.3316 27.8131 24.4578 25.9796 27.1881 27.2083L27.4033 27.3052C28.2519 27.6871 29.2654 27.3842 29.7344 26.6085L32.1332 22.6415C32.6022 21.8658 32.3702 20.8763 31.5996 20.3656C29.1005 18.7094 29.1005 15.0405 31.5996 13.3844C32.3702 12.8737 32.6022 11.8842 32.1332 11.1085L29.7344 7.14151C29.2654 6.3658 28.2519 6.06288 27.4033 6.44477L27.1881 6.54164C24.4578 7.77035 21.3316 5.93684 21.0713 2.9542C20.9934 2.06159 20.2119 1.375 19.2737 1.375H14.4763ZM16.875 22.0417C19.7285 22.0417 22.0417 19.7285 22.0417 16.875C22.0417 14.0215 19.7285 11.7083 16.875 11.7083C14.0215 11.7083 11.7083 14.0215 11.7083 16.875C11.7083 19.7285 14.0215 22.0417 16.875 22.0417Z" stroke="#2A85FF" stroke-width="2" stroke-linecap="round" stroke-linejoin="round"/>
</svg>
