<svg width="34" height="34" viewBox="0 0 34 34" fill="none" xmlns="http://www.w3.org/2000/svg">
<path d="M22.0417 32.2715V23.6604C22.0417 21.758 20.4995 20.2159 18.5972 20.2159L15.1528 20.2159C13.2505 20.2159 11.7083 21.758 11.7083 23.6604V32.2715M14.4634 2.54424L4.13008 7.99795C2.43546 8.89233 1.375 10.6511 1.375 12.5673L1.375 27.1048C1.375 29.9583 3.6882 32.2715 6.54167 32.2715L27.2083 32.2715C30.0618 32.2715 32.375 29.9583 32.375 27.1048V12.5673C32.375 10.6511 31.3145 8.89233 29.6199 7.99795L19.2866 2.54425C17.7775 1.74778 15.9725 1.74778 14.4634 2.54424Z" stroke="#2A85FF" stroke-width="2" stroke-linecap="round" stroke-linejoin="round"/>
</svg>
