<svg width="30" height="30" viewBox="0 0 30 30" fill="none" xmlns="http://www.w3.org/2000/svg">
<path d="M2.5 15.2549C2.5 12.3944 2.5 10.9641 3.149 9.77843C3.798 8.59276 4.98368 7.85689 7.35504 6.38516L9.85504 4.83359C12.3617 3.27786 13.6151 2.5 15 2.5C16.3849 2.5 17.6383 3.27786 20.145 4.83359L22.645 6.38516C25.0163 7.85689 26.202 8.59276 26.851 9.77843C27.5 10.9641 27.5 12.3944 27.5 15.2549V17.1562C27.5 22.0323 27.5 24.4704 26.0355 25.9852C24.5711 27.5 22.214 27.5 17.5 27.5H12.5C7.78595 27.5 5.42893 27.5 3.96447 25.9852C2.5 24.4704 2.5 22.0323 2.5 17.1562V15.2549Z" stroke="black" stroke-width="1.5"/>
<path d="M18.75 22.5H11.25" stroke="black" stroke-width="1.5" stroke-linecap="round"/>
</svg>
