<svg width="18" height="20" viewBox="0 0 18 20" fill="none" xmlns="http://www.w3.org/2000/svg">
<path fill-rule="evenodd" clip-rule="evenodd" d="M8.03575 0.145814H9.96441C10.788 0.145787 11.4748 0.145765 12.02 0.219067C12.5955 0.296438 13.1151 0.466636 13.5326 0.88415C13.9501 1.30166 14.1203 1.82123 14.1977 2.39671C14.2562 2.83221 14.268 3.35803 14.2703 3.97175C14.953 4.10023 15.537 4.34222 16.0141 4.8193C16.5659 5.37106 16.8032 6.06578 16.9141 6.89088C17.021 7.6856 17.0209 8.69606 17.0209 9.94969V11.0048C17.0209 12.076 17.0209 12.9325 16.9488 13.63C16.8742 14.3514 16.7181 14.9607 16.3706 15.523C16.0231 16.0853 15.5479 16.4974 14.9361 16.8867C14.3445 17.2631 13.5783 17.6462 12.6203 18.1252L12.5871 18.1418C12.5348 18.1679 12.4832 18.1938 12.4322 18.2193C10.9736 18.9492 10.0301 19.4214 9.00008 19.4214C7.97009 19.4214 7.02653 18.9492 5.56797 18.2193C5.51697 18.1938 5.46534 18.1679 5.41306 18.1418L5.37988 18.1252C4.42183 17.6462 3.65568 17.2631 3.06409 16.8867C2.45225 16.4974 1.97706 16.0853 1.62954 15.523C1.28202 14.9607 1.12593 14.3514 1.05135 13.63C0.979232 12.9325 0.979239 12.0759 0.979249 11.0048L0.979249 9.94968C0.97923 8.69606 0.979214 7.6856 1.08606 6.89088C1.19699 6.06578 1.43431 5.37106 1.98607 4.8193C2.46315 4.34222 3.04712 4.10022 3.72983 3.97175C3.73218 3.35802 3.74395 2.83221 3.8025 2.39671C3.87987 1.82123 4.05007 1.30166 4.46758 0.88415C4.8851 0.466636 5.40466 0.296438 5.98014 0.219067C6.52536 0.145765 7.21214 0.145787 8.03575 0.145814ZM5.10574 3.83597C5.69137 3.81246 6.35959 3.81247 7.11644 3.81248H10.8837C11.6406 3.81247 12.3088 3.81246 12.8944 3.83597C12.8908 3.30228 12.8781 2.90136 12.8349 2.57992C12.7781 2.15692 12.6798 1.97588 12.5603 1.85642C12.4409 1.73697 12.2598 1.63868 11.8368 1.58181C11.394 1.52227 10.8004 1.52082 9.91675 1.52082H8.08342C7.19974 1.52082 6.60614 1.52227 6.16336 1.58181C5.74035 1.63868 5.55931 1.73697 5.43986 1.85642C5.3204 1.97588 5.22211 2.15692 5.16524 2.57992C5.12202 2.90136 5.10941 3.30228 5.10574 3.83597ZM4.24086 5.28203C3.56823 5.37247 3.21204 5.53787 2.95834 5.79157C2.70464 6.04527 2.53923 6.40146 2.4488 7.07409C2.35571 7.7665 2.35425 8.68418 2.35425 9.99998V10.9677C2.35425 12.0844 2.3551 12.87 2.41906 13.4886C2.48138 14.0913 2.5991 14.4763 2.79919 14.8001C2.99927 15.1238 3.29099 15.4013 3.80223 15.7266C4.32691 16.0605 5.02917 16.4125 6.02798 16.9119C7.69902 17.7475 8.33493 18.0464 9.00008 18.0464C9.66524 18.0464 10.3011 17.7475 11.9722 16.9119C12.971 16.4125 13.6733 16.0605 14.1979 15.7266C14.7092 15.4013 15.0009 15.1238 15.201 14.8001C15.4011 14.4763 15.5188 14.0913 15.5811 13.4886C15.6451 12.87 15.6459 12.0844 15.6459 10.9677V9.99998C15.6459 8.68418 15.6445 7.7665 15.5514 7.07409C15.4609 6.40146 15.2955 6.04527 15.0418 5.79157C14.7881 5.53787 14.4319 5.37247 13.7593 5.28203C13.0669 5.18894 12.1492 5.18748 10.8334 5.18748H7.16675C5.85095 5.18748 4.93326 5.18894 4.24086 5.28203ZM9.00008 9.11493C8.94679 9.20719 8.88753 9.31343 8.8177 9.4387L8.72759 9.60036C8.72122 9.61177 8.71441 9.62423 8.70711 9.63758C8.63512 9.76923 8.51591 9.98724 8.31713 10.1381C8.11421 10.2922 7.8701 10.3452 7.72737 10.3762C7.71307 10.3793 7.69979 10.3822 7.68767 10.3849L7.51267 10.4245C7.3521 10.4608 7.2213 10.4905 7.10946 10.5186C7.1822 10.6081 7.2767 10.7193 7.39961 10.8631L7.51891 11.0026C7.52737 11.0125 7.53658 11.0231 7.54638 11.0344C7.64532 11.1483 7.80506 11.3323 7.87893 11.5699C7.95193 11.8046 7.92675 12.0464 7.91087 12.1989C7.90928 12.2141 7.90779 12.2284 7.9065 12.2418L7.88846 12.4279C7.87174 12.6005 7.85874 12.7382 7.85008 12.8502C7.9456 12.8082 8.05426 12.7582 8.18336 12.6987L8.34721 12.6233C8.35849 12.6181 8.37085 12.6123 8.38421 12.606C8.51576 12.5439 8.74464 12.436 9.00008 12.436C9.25553 12.436 9.48441 12.5439 9.61596 12.606C9.62932 12.6123 9.64168 12.6181 9.65296 12.6233L9.81681 12.6987C9.9459 12.7582 10.0546 12.8082 10.1501 12.8502C10.1414 12.7382 10.1284 12.6005 10.1117 12.4279L10.0937 12.2418C10.0924 12.2284 10.0909 12.2141 10.0893 12.1989C10.0734 12.0464 10.0482 11.8046 10.1212 11.5699C10.1951 11.3323 10.3548 11.1483 10.4538 11.0344C10.4636 11.0231 10.4728 11.0125 10.4813 11.0026L10.6006 10.8631C10.7235 10.7193 10.818 10.6081 10.8907 10.5186C10.7789 10.4905 10.6481 10.4608 10.4875 10.4245L10.3125 10.3849C10.3004 10.3822 10.2871 10.3793 10.2728 10.3762C10.1301 10.3452 9.88596 10.2922 9.68303 10.1381C9.48425 9.98724 9.36504 9.76923 9.29305 9.63758C9.28575 9.62423 9.27894 9.61177 9.27258 9.60036L9.18246 9.4387C9.11263 9.31343 9.05337 9.20719 9.00008 9.11493ZM8.09579 7.98298C8.25361 7.77689 8.54019 7.47915 9.00008 7.47915C9.45997 7.47915 9.74656 7.77689 9.90438 7.98298C10.055 8.17968 10.2067 8.45195 10.3622 8.7311C10.3693 8.74379 10.3764 8.75649 10.3835 8.76921L10.4736 8.93087C10.4945 8.96836 10.5109 8.99786 10.5253 9.02308C10.5504 9.02897 10.5795 9.03557 10.6159 9.04381L10.7909 9.08341C10.8053 9.08665 10.8196 9.08989 10.8339 9.09313C11.1344 9.16103 11.4331 9.22851 11.6623 9.31885C11.9154 9.41861 12.2585 9.61288 12.3908 10.0381C12.5207 10.4559 12.3568 10.8097 12.2136 11.0372C12.0811 11.2476 11.8797 11.483 11.6735 11.724C11.6642 11.7349 11.6549 11.7458 11.6456 11.7567L11.5263 11.8962C11.4946 11.9332 11.4708 11.9611 11.4507 11.9852C11.4535 12.0185 11.4572 12.0573 11.4623 12.1092L11.4803 12.2953C11.4817 12.3095 11.483 12.3237 11.4844 12.3378C11.5157 12.6604 11.546 12.9722 11.5349 13.2216C11.5233 13.4831 11.4605 13.8789 11.1056 14.1483C10.7395 14.4262 10.3351 14.3657 10.0787 14.2922C9.84245 14.2245 9.56328 14.0959 9.28211 13.9663C9.26865 13.9601 9.2552 13.9539 9.24174 13.9477L9.07789 13.8723C9.04723 13.8581 9.02204 13.8466 9.00008 13.8366C8.97813 13.8466 8.95293 13.8581 8.92227 13.8723L8.75843 13.9477C8.74496 13.9539 8.73148 13.9601 8.71802 13.9663C8.43686 14.0959 8.1577 14.2245 7.92144 14.2922C7.66503 14.3657 7.26068 14.4262 6.89455 14.1483C6.53965 13.8789 6.4769 13.4831 6.46525 13.2216C6.45414 12.9722 6.48441 12.6604 6.51574 12.3378C6.51712 12.3237 6.5185 12.3095 6.51987 12.2953L6.53791 12.1092C6.54294 12.0573 6.54668 12.0185 6.54942 11.9852C6.52935 11.9611 6.50552 11.9332 6.47391 11.8962L6.35461 11.7567C6.34528 11.7458 6.33595 11.7349 6.32663 11.724C6.12046 11.483 5.91908 11.2476 5.78658 11.0372C5.64341 10.8097 5.47947 10.4559 5.60938 10.0381C5.74162 9.61288 6.08473 9.41861 6.33787 9.31885C6.5671 9.22851 6.86574 9.16103 7.16623 9.09313C7.18056 9.08989 7.1949 9.08665 7.20924 9.08341L7.38423 9.04381C7.42065 9.03557 7.44979 9.02897 7.47484 9.02309C7.48923 8.99786 7.50568 8.96836 7.52658 8.93087L7.6167 8.76921C7.62379 8.7565 7.63086 8.7438 7.63793 8.73111C7.79346 8.45196 7.94515 8.17968 8.09579 7.98298Z" fill="#2A85FF"/>
</svg>
