<svg width="30" height="30" viewBox="0 0 30 30" fill="none" xmlns="http://www.w3.org/2000/svg">
<path fill-rule="evenodd" clip-rule="evenodd" d="M14.9283 1.5625H15.0717C17.9572 1.56248 20.2185 1.56247 21.9829 1.79968C23.7888 2.04248 25.2138 2.54916 26.3323 3.66767C27.4508 4.78618 27.9575 6.21121 28.2003 8.01713C28.4375 9.78149 28.4375 12.0428 28.4375 14.9283V15.0717C28.4375 17.9572 28.4375 20.2185 28.2003 21.9829C27.9575 23.7888 27.4508 25.2138 26.3323 26.3323C25.2138 27.4508 23.7888 27.9575 21.9829 28.2003C20.2185 28.4375 17.9572 28.4375 15.0717 28.4375H14.9283C12.0428 28.4375 9.78149 28.4375 8.01713 28.2003C6.21121 27.9575 4.78618 27.4508 3.66767 26.3323C2.54916 25.2138 2.04248 23.7888 1.79968 21.9829C1.56247 20.2185 1.56248 17.9572 1.5625 15.0717V14.9283C1.56248 12.0428 1.56247 9.78149 1.79968 8.01713C2.04248 6.21121 2.54916 4.78618 3.66767 3.66767C4.78618 2.54916 6.21121 2.04248 8.01713 1.79968C9.78149 1.56247 12.0428 1.56248 14.9283 1.5625ZM8.26697 3.65796C6.66897 3.87281 5.70557 4.28143 4.9935 4.9935C4.28143 5.70557 3.87281 6.66897 3.65796 8.26697C3.43949 9.89194 3.4375 12.0272 3.4375 15C3.4375 17.9728 3.43949 20.1081 3.65796 21.733C3.87281 23.331 4.28143 24.2944 4.9935 25.0065C5.70557 25.7186 6.66897 26.1272 8.26697 26.342C9.89194 26.5605 12.0272 26.5625 15 26.5625C17.9728 26.5625 20.1081 26.5605 21.733 26.342C23.331 26.1272 24.2944 25.7186 25.0065 25.0065C25.7186 24.2944 26.1272 23.331 26.342 21.733C26.5605 20.1081 26.5625 17.9728 26.5625 15C26.5625 12.0272 26.5605 9.89194 26.342 8.26697C26.1272 6.66897 25.7186 5.70557 25.0065 4.9935C24.2944 4.28143 23.331 3.87281 21.733 3.65796C20.1081 3.43949 17.9728 3.4375 15 3.4375C12.0272 3.4375 9.89194 3.43949 8.26697 3.65796ZM13.1466 8.07112C13.5215 8.4282 13.536 9.02162 13.1789 9.39655L9.60745 13.1466C9.4305 13.3323 9.18514 13.4375 8.92857 13.4375C8.672 13.4375 8.42664 13.3323 8.24969 13.1466L6.82112 11.6466C6.46404 11.2716 6.47851 10.6782 6.85345 10.3211C7.22838 9.96404 7.8218 9.97851 8.17888 10.3534L8.92857 11.1406L11.8211 8.10345C12.1782 7.72851 12.7716 7.71404 13.1466 8.07112ZM15.3125 11.25C15.3125 10.7322 15.7322 10.3125 16.25 10.3125H22.5C23.0178 10.3125 23.4375 10.7322 23.4375 11.25C23.4375 11.7678 23.0178 12.1875 22.5 12.1875H16.25C15.7322 12.1875 15.3125 11.7678 15.3125 11.25ZM13.1466 16.8211C13.5215 17.1782 13.536 17.7716 13.1789 18.1466L9.60745 21.8966C9.4305 22.0823 9.18514 22.1875 8.92857 22.1875C8.672 22.1875 8.42664 22.0823 8.24969 21.8966L6.82112 20.3966C6.46404 20.0216 6.47851 19.4282 6.85345 19.0711C7.22838 18.714 7.8218 18.7285 8.17888 19.1034L8.92857 19.8906L11.8211 16.8534C12.1782 16.4785 12.7716 16.464 13.1466 16.8211ZM15.3125 20C15.3125 19.4822 15.7322 19.0625 16.25 19.0625H22.5C23.0178 19.0625 23.4375 19.4822 23.4375 20C23.4375 20.5178 23.0178 20.9375 22.5 20.9375H16.25C15.7322 20.9375 15.3125 20.5178 15.3125 20Z" fill="white"/>
</svg>
