<svg width="28" height="28" viewBox="0 0 28 28" fill="none" xmlns="http://www.w3.org/2000/svg">
<path fill-rule="evenodd" clip-rule="evenodd" d="M13.9283 0.5625H14.0717C16.9572 0.562484 19.2185 0.562471 20.9829 0.799683C22.7888 1.04248 24.2138 1.54916 25.3323 2.66767C26.4508 3.78618 26.9575 5.21121 27.2003 7.01713C27.4375 8.78149 27.4375 11.0428 27.4375 13.9283V14.0717C27.4375 16.9572 27.4375 19.2185 27.2003 20.9829C26.9575 22.7888 26.4508 24.2138 25.3323 25.3323C24.2138 26.4508 22.7888 26.9575 20.9829 27.2003C19.2185 27.4375 16.9572 27.4375 14.0717 27.4375H13.9283C11.0428 27.4375 8.78149 27.4375 7.01713 27.2003C5.21121 26.9575 3.78618 26.4508 2.66767 25.3323C1.54916 24.2138 1.04248 22.7888 0.799683 20.9829C0.562471 19.2185 0.562484 16.9572 0.5625 14.0717V13.9283C0.562484 11.0428 0.562471 8.78149 0.799683 7.01713C1.04248 5.21121 1.54916 3.78618 2.66767 2.66767C3.78618 1.54916 5.21121 1.04248 7.01713 0.799683C8.78149 0.562471 11.0428 0.562484 13.9283 0.5625ZM7.26697 2.65796C5.66897 2.87281 4.70557 3.28143 3.9935 3.9935C3.28143 4.70557 2.87281 5.66897 2.65796 7.26697C2.43949 8.89194 2.4375 11.0272 2.4375 14C2.4375 16.9728 2.43949 19.1081 2.65796 20.733C2.87281 22.331 3.28143 23.2944 3.9935 24.0065C4.70557 24.7186 5.66897 25.1272 7.26697 25.342C8.89194 25.5605 11.0272 25.5625 14 25.5625C16.9728 25.5625 19.1081 25.5605 20.733 25.342C22.331 25.1272 23.2944 24.7186 24.0065 24.0065C24.7186 23.2944 25.1272 22.331 25.342 20.733C25.5605 19.1081 25.5625 16.9728 25.5625 14C25.5625 11.0272 25.5605 8.89194 25.342 7.26697C25.1272 5.66897 24.7186 4.70557 24.0065 3.9935C23.2944 3.28143 22.331 2.87281 20.733 2.65796C19.1081 2.43949 16.9728 2.4375 14 2.4375C11.0272 2.4375 8.89194 2.43949 7.26697 2.65796ZM12.1466 7.07112C12.5215 7.4282 12.536 8.02162 12.1789 8.39655L8.60745 12.1466C8.4305 12.3323 8.18514 12.4375 7.92857 12.4375C7.672 12.4375 7.42664 12.3323 7.24969 12.1466L5.82112 10.6466C5.46404 10.2716 5.47851 9.6782 5.85345 9.32112C6.22838 8.96404 6.8218 8.97851 7.17888 9.35345L7.92857 10.1406L10.8211 7.10345C11.1782 6.72851 11.7716 6.71404 12.1466 7.07112ZM14.3125 10.25C14.3125 9.73223 14.7322 9.3125 15.25 9.3125H21.5C22.0178 9.3125 22.4375 9.73223 22.4375 10.25C22.4375 10.7678 22.0178 11.1875 21.5 11.1875H15.25C14.7322 11.1875 14.3125 10.7678 14.3125 10.25ZM12.1466 15.8211C12.5215 16.1782 12.536 16.7716 12.1789 17.1466L8.60745 20.8966C8.4305 21.0823 8.18514 21.1875 7.92857 21.1875C7.672 21.1875 7.42664 21.0823 7.24969 20.8966L5.82112 19.3966C5.46404 19.0216 5.47851 18.4282 5.85345 18.0711C6.22838 17.714 6.8218 17.7285 7.17888 18.1034L7.92857 18.8906L10.8211 15.8534C11.1782 15.4785 11.7716 15.464 12.1466 15.8211ZM14.3125 19C14.3125 18.4822 14.7322 18.0625 15.25 18.0625H21.5C22.0178 18.0625 22.4375 18.4822 22.4375 19C22.4375 19.5178 22.0178 19.9375 21.5 19.9375H15.25C14.7322 19.9375 14.3125 19.5178 14.3125 19Z" fill="black"/>
</svg>
