<svg width="28" height="28" viewBox="0 0 28 28" fill="none" xmlns="http://www.w3.org/2000/svg">
<path d="M14.6629 20.9129C14.4871 21.0887 14.2486 21.1875 14 21.1875C13.7514 21.1875 13.5129 21.0887 13.3371 20.9129L10.2121 17.7879C9.84597 17.4218 9.84597 16.8282 10.2121 16.4621C10.5782 16.096 11.1718 16.096 11.5379 16.4621L13.0625 17.9867V12.75C13.0625 12.2322 13.4822 11.8125 14 11.8125C14.5178 11.8125 14.9375 12.2322 14.9375 12.75V17.9867L16.4621 16.4621C16.8282 16.096 17.4218 16.096 17.7879 16.4621C18.154 16.8282 18.154 17.4218 17.7879 17.7879L14.6629 20.9129Z" fill="black"/>
<path fill-rule="evenodd" clip-rule="evenodd" d="M14.0717 0.5625H13.9283C11.0428 0.562484 8.78149 0.562472 7.01713 0.799684C5.21121 1.04248 3.78618 1.54916 2.66767 2.66767C1.54916 3.78618 1.04248 5.21121 0.799684 7.01713C0.562472 8.78149 0.562484 11.0428 0.5625 13.9283V14H0.576156C0.562495 14.7236 0.562498 15.5374 0.5625 16.458V16.5419C0.562495 18.2566 0.562491 19.6009 0.650765 20.6813C0.740653 21.7815 0.926724 22.6904 1.34589 23.5131C2.03498 24.8655 3.13453 25.965 4.48694 26.6541C5.30961 27.0733 6.21849 27.2593 7.31867 27.3492C8.39909 27.4375 9.74336 27.4375 11.458 27.4375H16.542C18.2566 27.4375 19.6009 27.4375 20.6813 27.3492C21.7815 27.2593 22.6904 27.0733 23.5131 26.6541C24.8655 25.965 25.965 24.8655 26.6541 23.5131C27.0733 22.6904 27.2593 21.7815 27.3492 20.6813C27.4375 19.6009 27.4375 18.2566 27.4375 16.542V16.458C27.4375 15.5378 27.4375 14.7233 27.4238 14H27.4375V13.9283C27.4375 11.0428 27.4375 8.78149 27.2003 7.01713C26.9575 5.21121 26.4508 3.78618 25.3323 2.66767C24.2138 1.54916 22.7888 1.04248 20.9829 0.799684C19.2185 0.562472 16.9572 0.562484 14.0717 0.5625ZM4.48694 6.34589C3.78283 6.70466 3.14726 7.17468 2.60247 7.73372C2.61921 7.57355 2.63765 7.41806 2.65796 7.26697C2.87281 5.66897 3.28143 4.70557 3.9935 3.9935C4.70557 3.28143 5.66897 2.87281 7.26697 2.65796C8.89194 2.43949 11.0272 2.4375 14 2.4375C16.9728 2.4375 19.1081 2.43949 20.733 2.65796C22.331 2.87281 23.2944 3.28143 24.0065 3.9935C24.7186 4.70557 25.1272 5.66897 25.342 7.26697C25.3624 7.41806 25.3808 7.57356 25.3975 7.73373C24.8527 7.17469 24.2172 6.70466 23.5131 6.34589C22.6904 5.92672 21.7815 5.74065 20.6813 5.65077C19.6009 5.56249 18.2566 5.56249 16.5419 5.5625H11.4581C9.74341 5.56249 8.39911 5.56249 7.31867 5.65077C6.21849 5.74065 5.30961 5.92672 4.48694 6.34589ZM5.33818 8.01653C5.85246 7.75449 6.48713 7.59995 7.47136 7.51954C8.46652 7.43823 9.73437 7.4375 11.5 7.4375H16.5C18.2656 7.4375 19.5335 7.43823 20.5286 7.51954C21.5129 7.59995 22.1475 7.75449 22.6618 8.01653C23.6614 8.52586 24.4741 9.33856 24.9835 10.3382C25.2455 10.8525 25.4 11.4871 25.4805 12.4714C25.5618 13.4665 25.5625 14.7344 25.5625 16.5C25.5625 18.2656 25.5618 19.5335 25.4805 20.5286C25.4 21.5129 25.2455 22.1475 24.9835 22.6618C24.4741 23.6614 23.6614 24.4741 22.6618 24.9835C22.1475 25.2455 21.5129 25.4 20.5286 25.4805C19.5335 25.5618 18.2656 25.5625 16.5 25.5625H11.5C9.73437 25.5625 8.46652 25.5618 7.47136 25.4805C6.48713 25.4 5.85246 25.2455 5.33818 24.9835C4.33857 24.4741 3.52586 23.6614 3.01653 22.6618C2.75449 22.1475 2.59995 21.5129 2.51954 20.5286C2.43823 19.5335 2.4375 18.2656 2.4375 16.5C2.4375 14.7344 2.43823 13.4665 2.51954 12.4714C2.59995 11.4871 2.75449 10.8525 3.01653 10.3382C3.52586 9.33856 4.33857 8.52586 5.33818 8.01653Z" fill="black"/>
</svg>
