<svg width="30" height="30" viewBox="0 0 30 30" fill="none" xmlns="http://www.w3.org/2000/svg">
<path d="M15.6629 21.9129C15.4871 22.0887 15.2486 22.1875 15 22.1875C14.7514 22.1875 14.5129 22.0887 14.3371 21.9129L11.2121 18.7879C10.846 18.4218 10.846 17.8282 11.2121 17.4621C11.5782 17.096 12.1718 17.096 12.5379 17.4621L14.0625 18.9867V13.75C14.0625 13.2322 14.4822 12.8125 15 12.8125C15.5178 12.8125 15.9375 13.2322 15.9375 13.75V18.9867L17.4621 17.4621C17.8282 17.096 18.4218 17.096 18.7879 17.4621C19.154 17.8282 19.154 18.4218 18.7879 18.7879L15.6629 21.9129Z" fill="white"/>
<path fill-rule="evenodd" clip-rule="evenodd" d="M15.0717 1.5625H14.9283C12.0428 1.56248 9.78149 1.56247 8.01713 1.79968C6.21121 2.04248 4.78618 2.54916 3.66767 3.66767C2.54916 4.78618 2.04248 6.21121 1.79968 8.01713C1.56247 9.78149 1.56248 12.0428 1.5625 14.9283V15H1.57616C1.5625 15.7236 1.5625 16.5374 1.5625 17.458V17.5419C1.56249 19.2566 1.56249 20.6009 1.65077 21.6813C1.74065 22.7815 1.92672 23.6904 2.34589 24.5131C3.03498 25.8655 4.13453 26.965 5.48694 27.6541C6.30961 28.0733 7.21849 28.2593 8.31867 28.3492C9.39909 28.4375 10.7434 28.4375 12.458 28.4375H17.542C19.2566 28.4375 20.6009 28.4375 21.6813 28.3492C22.7815 28.2593 23.6904 28.0733 24.5131 27.6541C25.8655 26.965 26.965 25.8655 27.6541 24.5131C28.0733 23.6904 28.2593 22.7815 28.3492 21.6813C28.4375 20.6009 28.4375 19.2566 28.4375 17.542V17.458C28.4375 16.5378 28.4375 15.7233 28.4238 15H28.4375V14.9283C28.4375 12.0428 28.4375 9.78149 28.2003 8.01713C27.9575 6.21121 27.4508 4.78618 26.3323 3.66767C25.2138 2.54916 23.7888 2.04248 21.9829 1.79968C20.2185 1.56247 17.9572 1.56248 15.0717 1.5625ZM5.48694 7.34589C4.78283 7.70466 4.14726 8.17468 3.60247 8.73372C3.61921 8.57355 3.63765 8.41806 3.65796 8.26697C3.87281 6.66897 4.28143 5.70557 4.9935 4.9935C5.70557 4.28143 6.66897 3.87281 8.26697 3.65796C9.89194 3.43949 12.0272 3.4375 15 3.4375C17.9728 3.4375 20.1081 3.43949 21.733 3.65796C23.331 3.87281 24.2944 4.28143 25.0065 4.9935C25.7186 5.70557 26.1272 6.66897 26.342 8.26697C26.3624 8.41806 26.3808 8.57356 26.3975 8.73373C25.8527 8.17469 25.2172 7.70466 24.5131 7.34589C23.6904 6.92672 22.7815 6.74065 21.6813 6.65077C20.6009 6.56249 19.2566 6.56249 17.5419 6.5625H12.4581C10.7434 6.56249 9.39911 6.56249 8.31867 6.65077C7.21849 6.74065 6.30961 6.92672 5.48694 7.34589ZM6.33818 9.01653C6.85246 8.75449 7.48713 8.59995 8.47136 8.51954C9.46652 8.43823 10.7344 8.4375 12.5 8.4375H17.5C19.2656 8.4375 20.5335 8.43823 21.5286 8.51954C22.5129 8.59995 23.1475 8.75449 23.6618 9.01653C24.6614 9.52586 25.4741 10.3386 25.9835 11.3382C26.2455 11.8525 26.4 12.4871 26.4805 13.4714C26.5618 14.4665 26.5625 15.7344 26.5625 17.5C26.5625 19.2656 26.5618 20.5335 26.4805 21.5286C26.4 22.5129 26.2455 23.1475 25.9835 23.6618C25.4741 24.6614 24.6614 25.4741 23.6618 25.9835C23.1475 26.2455 22.5129 26.4 21.5286 26.4805C20.5335 26.5618 19.2656 26.5625 17.5 26.5625H12.5C10.7344 26.5625 9.46652 26.5618 8.47136 26.4805C7.48713 26.4 6.85246 26.2455 6.33818 25.9835C5.33857 25.4741 4.52586 24.6614 4.01653 23.6618C3.75449 23.1475 3.59995 22.5129 3.51954 21.5286C3.43823 20.5335 3.4375 19.2656 3.4375 17.5C3.4375 15.7344 3.43823 14.4665 3.51954 13.4714C3.59995 12.4871 3.75449 11.8525 4.01653 11.3382C4.52586 10.3386 5.33857 9.52586 6.33818 9.01653Z" fill="white"/>
</svg>
