<svg width="16" height="19" viewBox="0 0 16 19" fill="none" xmlns="http://www.w3.org/2000/svg">
<path fill-rule="evenodd" clip-rule="evenodd" d="M7.99992 0.145813C5.59518 0.145813 3.64575 2.09524 3.64575 4.49998C3.64575 6.90472 5.59518 8.85415 7.99992 8.85415C10.4047 8.85415 12.3541 6.90472 12.3541 4.49998C12.3541 2.09524 10.4047 0.145813 7.99992 0.145813ZM5.02075 4.49998C5.02075 2.85463 6.35457 1.52081 7.99992 1.52081C9.64527 1.52081 10.9791 2.85463 10.9791 4.49998C10.9791 6.14533 9.64527 7.47915 7.99992 7.47915C6.35457 7.47915 5.02075 6.14533 5.02075 4.49998Z" fill="#2A85FF"/>
<path fill-rule="evenodd" clip-rule="evenodd" d="M7.99992 10.2291C6.13053 10.2291 4.40431 10.6607 3.12155 11.3937C1.85825 12.1156 0.895752 13.2176 0.895752 14.5833C0.895752 15.949 1.85825 17.0511 3.12155 17.773C4.40431 18.506 6.13053 18.9375 7.99992 18.9375C9.86931 18.9375 11.5955 18.506 12.8783 17.773C14.1416 17.0511 15.1041 15.949 15.1041 14.5833C15.1041 13.2176 14.1416 12.1156 12.8783 11.3937C11.5955 10.6607 9.86931 10.2291 7.99992 10.2291ZM2.27075 14.5833C2.27075 13.924 2.74467 13.1927 3.80375 12.5875C4.84337 11.9934 6.32548 11.6041 7.99992 11.6041C9.67435 11.6041 11.1565 11.9934 12.1961 12.5875C13.2552 13.1927 13.7291 13.924 13.7291 14.5833C13.7291 15.2426 13.2552 15.9739 12.1961 16.5791C11.1565 17.1732 9.67435 17.5625 7.99992 17.5625C6.32548 17.5625 4.84337 17.1732 3.80375 16.5791C2.74467 15.9739 2.27075 15.2426 2.27075 14.5833Z" fill="#2A85FF"/>
</svg>
