<svg width="26" height="28" viewBox="0 0 26 28" fill="none" xmlns="http://www.w3.org/2000/svg">
<path d="M13 8.0625C13.5178 8.0625 13.9375 8.48223 13.9375 9V14C13.9375 14.5178 13.5178 14.9375 13 14.9375C12.4822 14.9375 12.0625 14.5178 12.0625 14V9C12.0625 8.48223 12.4822 8.0625 13 8.0625Z" fill="white"/>
<path d="M13 19C13.6904 19 14.25 18.4404 14.25 17.75C14.25 17.0596 13.6904 16.5 13 16.5C12.3096 16.5 11.75 17.0596 11.75 17.75C11.75 18.4404 12.3096 19 13 19Z" fill="white"/>
<path fill-rule="evenodd" clip-rule="evenodd" d="M8.90424 1.56389C10.7092 0.945728 11.8281 0.5625 13 0.5625C14.1719 0.5625 15.2909 0.945729 17.0958 1.5639L18.0051 1.87517C19.8567 2.509 21.2857 2.99815 22.3087 3.41373C22.824 3.62307 23.267 3.82584 23.6238 4.03301C23.9671 4.23238 24.3115 4.48105 24.5455 4.81443C24.7767 5.14395 24.8963 5.54906 24.9715 5.93902C25.0496 6.34445 25.0967 6.83079 25.1271 7.3892C25.1875 8.498 25.1875 10.017 25.1875 11.9873V13.9892C25.1875 21.6155 19.4275 25.2719 16.0021 26.7682L15.9682 26.783C15.5435 26.9686 15.1442 27.1431 14.6855 27.2605C14.2012 27.3845 13.6866 27.4375 13 27.4375C12.3134 27.4375 11.7988 27.3845 11.3145 27.2605C10.8558 27.1431 10.4565 26.9686 10.0318 26.783L9.99792 26.7682C6.57253 25.2719 0.8125 21.6155 0.8125 13.9892V11.9874C0.812498 10.0171 0.812497 8.49801 0.872874 7.3892C0.90328 6.83079 0.95039 6.34445 1.02852 5.93902C1.10367 5.54906 1.22326 5.14395 1.45454 4.81443C1.68853 4.48105 2.03293 4.23238 2.37623 4.03301C2.73296 3.82584 3.17598 3.62307 3.69129 3.41373C4.71425 2.99816 6.14327 2.509 7.99494 1.87517L8.90424 1.56389ZM13 2.4375C12.1778 2.4375 11.3689 2.70205 9.35077 3.39287L8.63475 3.63797C6.74401 4.28517 5.36512 4.75756 4.39699 5.15086C3.91375 5.34717 3.56363 5.51168 3.31786 5.65441C3.19653 5.72488 3.11292 5.78302 3.05709 5.82841C3.00975 5.86689 2.9917 5.88868 2.98911 5.89186C2.9867 5.89578 2.97116 5.92175 2.94929 5.98317C2.9243 6.05331 2.89662 6.15386 2.86964 6.29382C2.81505 6.57712 2.77368 6.96627 2.7451 7.49115C2.68784 8.54264 2.6875 10.0104 2.6875 12.0208V13.9892C2.6875 20.4581 7.52487 23.6418 10.7485 25.05C11.2128 25.2528 11.481 25.3676 11.7795 25.4441C12.0646 25.517 12.4125 25.5625 13 25.5625C13.5875 25.5625 13.9354 25.517 14.2205 25.4441C14.519 25.3676 14.7872 25.2528 15.2515 25.05C18.4751 23.6418 23.3125 20.4581 23.3125 13.9892V12.0208C23.3125 10.0104 23.3122 8.54264 23.2549 7.49115C23.2263 6.96627 23.1849 6.57712 23.1304 6.29382C23.1034 6.15386 23.0757 6.05331 23.0507 5.98317C23.0288 5.92171 23.0133 5.89575 23.0109 5.89185C23.0083 5.88865 22.9902 5.86686 22.9429 5.82841C22.8871 5.78302 22.8035 5.72488 22.6821 5.65441C22.4364 5.51168 22.0862 5.34717 21.603 5.15086C20.6349 4.75756 19.256 4.28517 17.3652 3.63797L16.6492 3.39287C14.6311 2.70205 13.8222 2.4375 13 2.4375Z" fill="white"/>
</svg>
